<?xml version="1.0" encoding="UTF-8" standalone="no"?>
<!-- Created with Inkscape (http://www.inkscape.org/) -->

<svg
   xmlns:dc="http://purl.org/dc/elements/1.1/"
   xmlns:cc="http://creativecommons.org/ns#"
   xmlns:rdf="http://www.w3.org/1999/02/22-rdf-syntax-ns#"
   xmlns:svg="http://www.w3.org/2000/svg"
   xmlns="http://www.w3.org/2000/svg"
   xmlns:sodipodi="http://sodipodi.sourceforge.net/DTD/sodipodi-0.dtd"
   xmlns:inkscape="http://www.inkscape.org/namespaces/inkscape"
   width="152.3622"
   height="201.96851"
   id="svg2"
   version="1.1"
   inkscape:version="0.48.2 r9819"
   sodipodi:docname="Givens_Rotation.svg">
  <defs
     id="defs4">
    <marker
       inkscape:stockid="Arrow2Mend"
       orient="auto"
       refY="0"
       refX="0"
       id="Arrow2Mend"
       style="overflow:visible">
      <path
         id="path4133"
         style="font-size:12px;fill-rule:evenodd;stroke-width:0.625;stroke-linejoin:round"
         d="M 8.7185878,4.0337352 -2.2072895,0.01601326 8.7185884,-4.0017078 c -1.7454984,2.3720609 -1.7354408,5.6174519 -6e-7,8.035443 z"
         transform="scale(-0.6,-0.6)"
         inkscape:connector-curvature="0" />
    </marker>
  </defs>
  <sodipodi:namedview
     id="base"
     pagecolor="#ffffff"
     bordercolor="#666666"
     borderopacity="1.0"
     inkscape:pageopacity="0.0"
     inkscape:pageshadow="2"
     inkscape:zoom="3.5560001"
     inkscape:cx="40.877171"
     inkscape:cy="185.71307"
     inkscape:document-units="px"
     inkscape:current-layer="layer1"
     showgrid="true"
     units="cm"
     inkscape:window-width="1192"
     inkscape:window-height="892"
     inkscape:window-x="71"
     inkscape:window-y="0"
     inkscape:window-maximized="0"
     showguides="true"
     inkscape:guide-bbox="true">
    <inkscape:grid
       type="xygrid"
       id="grid2985"
       empspacing="5"
       visible="true"
       enabled="true"
       snapvisiblegridlinesonly="true"
       units="mm"
       spacingx="1mm"
       spacingy="1mm" />
  </sodipodi:namedview>
  <metadata
     id="metadata7">
    <rdf:RDF>
      <cc:Work
         rdf:about="">
        <dc:format>image/svg+xml</dc:format>
        <dc:type
           rdf:resource="http://purl.org/dc/dcmitype/StillImage" />
        <dc:title />
      </cc:Work>
    </rdf:RDF>
  </metadata>
  <g
     inkscape:label="Ebene 1"
     inkscape:groupmode="layer"
     id="layer1"
     transform="translate(0,-850.39369)">
    <g
       id="g3063"
       transform="translate(-3.5433071,-14.21701)">
      <text
         xml:space="preserve"
         style="font-size:12px;font-style:normal;font-variant:normal;font-weight:normal;font-stretch:normal;text-align:end;line-height:125%;letter-spacing:0px;word-spacing:0px;text-anchor:end;fill:#000000;fill-opacity:1;stroke:none;font-family:Gill Sans;-inkscape-font-specification:Gill Sans"
         x="3.5433071"
         y="1048.8627"
         id="text3065"
         sodipodi:linespacing="125%"><tspan
           id="tspan3069"
           sodipodi:role="line"
           x="3.5433071"
           y="1048.8627"
           style="font-style:normal;font-variant:normal;font-weight:300;font-stretch:normal;text-align:start;line-height:100%;text-anchor:start;font-family:Gill Sans;-inkscape-font-specification:Gill Sans Light">Zeroing the element at row 4,</tspan><tspan
           sodipodi:role="line"
           x="3.5433071"
           y="1060.8627"
           style="font-style:normal;font-variant:normal;font-weight:300;font-stretch:normal;text-align:start;line-height:100%;text-anchor:start;font-family:Gill Sans;-inkscape-font-specification:Gill Sans Light"
           id="tspan3052">column 3 changes rows 3 and 4.</tspan></text>
    </g>
    <g
       id="g4551"
       transform="translate(-3.5433071,-14.21701)">
      <rect
         style="fill:#48494b;fill-rule:evenodd;stroke:none"
         id="rect3776"
         width="21.259842"
         height="21.259842"
         x="28.346466"
         y="889.37012" />
      <rect
         y="889.37012"
         x="53.14962"
         height="21.259842"
         width="21.259842"
         id="rect3778"
         style="fill:#48494b;fill-rule:evenodd;stroke:none" />
      <rect
         style="fill:#48494b;fill-rule:evenodd;stroke:none"
         id="rect3780"
         width="21.259842"
         height="21.259842"
         x="77.952766"
         y="889.37012" />
      <rect
         y="889.37012"
         x="102.75592"
         height="21.259842"
         width="21.259842"
         id="rect3782"
         style="fill:#48494b;fill-rule:evenodd;stroke:none" />
      <rect
         style="fill:#48494b;fill-rule:evenodd;stroke:none"
         id="rect3784"
         width="21.259842"
         height="21.259842"
         x="127.55907"
         y="889.37012" />
      <path
         sodipodi:nodetypes="cccccccccc"
         inkscape:connector-curvature="0"
         id="rect3786"
         d="m 3.5455318,914.18482 0,21.25 21.2500002,0 0,-21.25 z m 1.53125,1.53125 18.1875002,0 0,18.1875 -18.1875002,0 z"
         style="fill:#a1aabb;fill-rule:evenodd;stroke:none" />
      <rect
         style="fill:#a1aabb;fill-rule:evenodd;stroke:none"
         id="rect3790"
         width="21.259842"
         height="21.259842"
         x="53.14962"
         y="914.17328" />
      <rect
         y="914.17328"
         x="77.952766"
         height="21.259842"
         width="21.259842"
         id="rect3792"
         style="fill:#a1aabb;fill-rule:evenodd;stroke:none" />
      <rect
         style="fill:#a1aabb;fill-rule:evenodd;stroke:none"
         id="rect3794"
         width="21.259842"
         height="21.259842"
         x="102.75592"
         y="914.17328" />
      <rect
         y="914.17328"
         x="127.55907"
         height="21.259842"
         width="21.259842"
         id="rect3796"
         style="fill:#a1aabb;fill-rule:evenodd;stroke:none" />
      <rect
         y="938.97644"
         x="53.14962"
         height="21.259842"
         width="21.259842"
         id="rect3802"
         style="fill:#5d7fbb;fill-rule:evenodd;stroke:none" />
      <rect
         style="fill:#a1aabb;fill-rule:evenodd;stroke:none"
         id="rect3804"
         width="21.259842"
         height="21.259842"
         x="77.952766"
         y="938.97644" />
      <rect
         y="938.97644"
         x="102.75592"
         height="21.259842"
         width="21.259842"
         id="rect3806"
         style="fill:#a1aabb;fill-rule:evenodd;stroke:none" />
      <rect
         style="fill:#a1aabb;fill-rule:evenodd;stroke:none"
         id="rect3808"
         width="21.259842"
         height="21.259842"
         x="127.55907"
         y="938.97644" />
      <rect
         y="963.77954"
         x="77.952766"
         height="21.259842"
         width="21.259842"
         id="rect3828"
         style="fill:#48494b;fill-rule:evenodd;stroke:none" />
      <rect
         style="fill:#48494b;fill-rule:evenodd;stroke:none"
         id="rect3830"
         width="21.259842"
         height="21.259842"
         x="102.75592"
         y="963.77954" />
      <rect
         y="963.77954"
         x="127.55907"
         height="21.259842"
         width="21.259842"
         id="rect3832"
         style="fill:#48494b;fill-rule:evenodd;stroke:none" />
      <rect
         y="988.5827"
         x="102.75592"
         height="21.259842"
         width="21.259842"
         id="rect3854"
         style="fill:#48494b;fill-rule:evenodd;stroke:none" />
      <rect
         style="fill:#48494b;fill-rule:evenodd;stroke:none"
         id="rect3856"
         width="21.259842"
         height="21.259842"
         x="127.55907"
         y="988.5827" />
      <rect
         y="1013.3858"
         x="127.55907"
         height="21.259842"
         width="21.259842"
         id="rect3880"
         style="fill:#48494b;fill-rule:evenodd;stroke:none" />
      <path
         style="fill:#a1aabb;fill-rule:evenodd;stroke:none"
         d="m 3.5433168,938.97639 0,21.25 21.2500002,0 0,-21.25 z m 1.53125,1.53125 18.1875002,0 0,18.1875 -18.1875002,0 z"
         id="path3925"
         inkscape:connector-curvature="0"
         sodipodi:nodetypes="cccccccccc" />
      <path
         sodipodi:nodetypes="cccccccccc"
         inkscape:connector-curvature="0"
         id="path3927"
         d="m 28.346467,938.97639 0,21.25 21.25,0 0,-21.25 z m 1.53125,1.53125 18.1875,0 0,18.1875 -18.1875,0 z"
         style="fill:#a1aabb;fill-rule:evenodd;stroke:none" />
      <path
         sodipodi:nodetypes="cccccccccc"
         inkscape:connector-curvature="0"
         id="path3933"
         d="m 3.5433168,963.77954 0,21.25 21.2500002,0 0,-21.25 z m 1.53125,1.53125 18.1875002,0 0,18.1875 -18.1875002,0 z"
         style="fill:#48494b;fill-rule:evenodd;stroke:none" />
      <path
         style="fill:#48494b;fill-rule:evenodd;stroke:none"
         d="m 28.346467,963.77954 0,21.25 21.25,0 0,-21.25 z m 1.53125,1.53125 18.1875,0 0,18.1875 -18.1875,0 z"
         id="path3935"
         inkscape:connector-curvature="0"
         sodipodi:nodetypes="cccccccccc" />
      <path
         sodipodi:nodetypes="cccccccccc"
         inkscape:connector-curvature="0"
         id="path3937"
         d="m 53.149617,963.77954 0,21.25 21.25,0 0,-21.25 z m 1.53125,1.53125 18.1875,0 0,18.1875 -18.1875,0 z"
         style="fill:#48494b;fill-rule:evenodd;stroke:none" />
      <path
         style="fill:#48494b;fill-rule:evenodd;stroke:none"
         d="m 3.5433168,988.58269 0,21.25001 21.2500002,0 0,-21.25001 z m 1.53125,1.53125 18.1875002,0 0,18.18746 -18.1875002,0 z"
         id="path3939"
         inkscape:connector-curvature="0"
         sodipodi:nodetypes="cccccccccc" />
      <path
         sodipodi:nodetypes="cccccccccc"
         inkscape:connector-curvature="0"
         id="path3941"
         d="m 28.346467,988.58269 0,21.25001 21.25,0 0,-21.25001 z m 1.53125,1.53125 18.1875,0 0,18.18746 -18.1875,0 z"
         style="fill:#48494b;fill-rule:evenodd;stroke:none" />
      <path
         style="fill:#48494b;fill-rule:evenodd;stroke:none"
         d="m 53.149617,988.58269 0,21.25001 21.25,0 0,-21.25001 z m 1.53125,1.53125 18.1875,0 0,18.18746 -18.1875,0 z"
         id="path3943"
         inkscape:connector-curvature="0"
         sodipodi:nodetypes="cccccccccc" />
      <path
         sodipodi:nodetypes="cccccccccc"
         inkscape:connector-curvature="0"
         id="path3945"
         d="m 77.952766,988.58269 0,21.25001 21.249997,0 0,-21.25001 z m 1.53125,1.5312 18.187497,0 0,18.18751 -18.187497,0 z"
         style="fill:#48494b;fill-rule:evenodd;stroke:none" />
      <path
         sodipodi:nodetypes="cccccccccc"
         inkscape:connector-curvature="0"
         id="path3947"
         d="m 3.5433168,1013.3858 0,21.2501 21.2500002,0 0,-21.2501 z m 1.53125,1.5313 18.1875002,0 0,18.1875 -18.1875002,0 z"
         style="fill:#48494b;fill-rule:evenodd;stroke:none" />
      <path
         style="fill:#48494b;fill-rule:evenodd;stroke:none"
         d="m 28.346467,1013.3858 0,21.2501 21.25,0 0,-21.2501 z m 1.53125,1.5313 18.1875,0 0,18.1875 -18.1875,0 z"
         id="path3949"
         inkscape:connector-curvature="0"
         sodipodi:nodetypes="cccccccccc" />
      <path
         sodipodi:nodetypes="cccccccccc"
         inkscape:connector-curvature="0"
         id="path3951"
         d="m 53.149617,1013.3858 0,21.2501 21.25,0 0,-21.2501 z m 1.53125,1.5313 18.1875,0 0,18.1875 -18.1875,0 z"
         style="fill:#48494b;fill-rule:evenodd;stroke:none" />
      <path
         style="fill:#48494b;fill-rule:evenodd;stroke:none"
         d="m 77.952766,1013.3858 0,21.2501 21.249997,0 0,-21.2501 z m 1.53125,1.5312 18.187497,0 0,18.1876 -18.187497,0 z"
         id="path3953"
         inkscape:connector-curvature="0"
         sodipodi:nodetypes="cccccccccc" />
      <path
         sodipodi:nodetypes="cccccccccc"
         inkscape:connector-curvature="0"
         id="path3955"
         d="m 102.75591,1013.3858 0,21.2501 21.25,0 0,-21.2501 z m 1.53125,1.5312 18.1875,0 0,18.1876 -18.1875,0 z"
         style="fill:#48494b;fill-rule:evenodd;stroke:none" />
      <rect
         style="fill:#48494b;fill-rule:evenodd;stroke:none"
         id="rect3045"
         width="21.259842"
         height="21.259842"
         x="3.5433071"
         y="864.56696" />
      <rect
         y="864.56696"
         x="28.346457"
         height="21.259842"
         width="21.259842"
         id="rect3047"
         style="fill:#48494b;fill-rule:evenodd;stroke:none" />
      <rect
         style="fill:#48494b;fill-rule:evenodd;stroke:none"
         id="rect3049"
         width="21.259842"
         height="21.259842"
         x="53.149609"
         y="864.56696" />
      <rect
         y="864.56696"
         x="77.952759"
         height="21.259842"
         width="21.259842"
         id="rect3051"
         style="fill:#48494b;fill-rule:evenodd;stroke:none" />
      <rect
         style="fill:#48494b;fill-rule:evenodd;stroke:none"
         id="rect3053"
         width="21.259842"
         height="21.259842"
         x="102.75591"
         y="864.56696" />
      <rect
         y="864.56696"
         x="127.55906"
         height="21.259842"
         width="21.259842"
         id="rect3055"
         style="fill:#48494b;fill-rule:evenodd;stroke:none" />
      <path
         style="fill:#48494b;fill-rule:evenodd;stroke:none"
         d="m 3.5433071,889.4139 0,21.25 21.2499999,0 0,-21.25 z m 1.53125,1.53125 18.1874999,0 0,18.1875 -18.1874999,0 z"
         id="path3042"
         inkscape:connector-curvature="0"
         sodipodi:nodetypes="cccccccccc" />
      <path
         style="fill:#a1aabb;fill-rule:evenodd;stroke:none"
         d="m 28.346457,914.21705 0,21.25 21.25,0 0,-21.25 z m 1.53125,1.53125 18.1875,0 0,18.1875 -18.1875,0 z"
         id="path3044"
         inkscape:connector-curvature="0"
         sodipodi:nodetypes="cccccccccc" />
    </g>
  </g>
</svg>
