<?xml version="1.0" encoding="UTF-8" standalone="no"?>
<svg
   xmlns:dc="http://purl.org/dc/elements/1.1/"
   xmlns:cc="http://creativecommons.org/ns#"
   xmlns:rdf="http://www.w3.org/1999/02/22-rdf-syntax-ns#"
   xmlns:svg="http://www.w3.org/2000/svg"
   xmlns="http://www.w3.org/2000/svg"
   xmlns:sodipodi="http://sodipodi.sourceforge.net/DTD/sodipodi-0.dtd"
   xmlns:inkscape="http://www.inkscape.org/namespaces/inkscape"
   width="4.3cm"
   height="5.7cm"
   id="svg2"
   version="1.1"
   viewBox="0 0 152.3622 201.96851"
   inkscape:version="1.0.2 (e86c8708, 2021-01-15)"
   sodipodi:docname="Givens_Rotation.svg">
  <defs
     id="defs4" />
  <sodipodi:namedview
     id="base"
     pagecolor="#ffffff"
     bordercolor="#666666"
     borderopacity="1.0"
     inkscape:pageopacity="0.0"
     inkscape:pageshadow="2"
     inkscape:zoom="3.3838817"
     inkscape:cx="81.259846"
     inkscape:cy="107.71653"
     inkscape:document-units="mm"
     inkscape:current-layer="svg2"
     showgrid="true"
     units="cm"
     inkscape:window-width="1192"
     inkscape:window-height="892"
     inkscape:window-x="71"
     inkscape:window-y="25"
     inkscape:window-maximized="0"
     showguides="true"
     inkscape:guide-bbox="true"
     inkscape:document-rotation="0">
    <inkscape:grid
       type="xygrid"
       id="grid2985"
       empspacing="5"
       visible="true"
       enabled="true"
       snapvisiblegridlinesonly="true"
       units="mm"
       spacingx="3.5433067"
       spacingy="3.5433074"
       originx="0"
       originy="0" />
  </sodipodi:namedview>
  <metadata
     id="metadata7">
    <rdf:RDF>
      <cc:Work
         rdf:about="">
        <dc:format>image/svg+xml</dc:format>
        <dc:type
           rdf:resource="http://purl.org/dc/dcmitype/StillImage" />
        <dc:title />
      </cc:Work>
    </rdf:RDF>
  </metadata>
  <g
     transform="translate(-3.5433071,-864.6107)"
     id="g3063">
    <text
       id="text3065"
       y="1048.8627"
       x="3.5433071"
       style="font-style:normal;font-variant:normal;font-weight:normal;font-stretch:normal;line-height:0%;font-family:'Gill Sans';-inkscape-font-specification:'Gill Sans';text-align:end;letter-spacing:0px;word-spacing:0px;text-anchor:end;fill:#000000;fill-opacity:1;stroke:none"
       xml:space="preserve"><tspan
         style="font-style:normal;font-variant:normal;font-weight:300;font-stretch:normal;font-size:12px;line-height:100%;font-family:'Gill Sans';-inkscape-font-specification:'Gill Sans Light';text-align:start;text-anchor:start"
         y="1048.8627"
         x="3.5433071"
         sodipodi:role="line"
         id="tspan3069">Zeroing the element at row 4,</tspan><tspan
         id="tspan3052"
         style="font-style:normal;font-variant:normal;font-weight:300;font-stretch:normal;font-size:12px;line-height:100%;font-family:'Gill Sans';-inkscape-font-specification:'Gill Sans Light';text-align:start;text-anchor:start"
         y="1060.8627"
         x="3.5433071"
         sodipodi:role="line">column 3 changes rows 3 and 4.</tspan></text>
  </g>
  <g
     transform="translate(-3.5433071,-864.6107)"
     id="g4551">
    <rect
       y="889.37012"
       x="28.346466"
       height="21.259842"
       width="21.259842"
       id="rect3776"
       style="fill:#48494b;fill-rule:evenodd;stroke:none" />
    <rect
       style="fill:#48494b;fill-rule:evenodd;stroke:none"
       id="rect3778"
       width="21.259842"
       height="21.259842"
       x="53.14962"
       y="889.37012" />
    <rect
       y="889.37012"
       x="77.952766"
       height="21.259842"
       width="21.259842"
       id="rect3780"
       style="fill:#48494b;fill-rule:evenodd;stroke:none" />
    <rect
       style="fill:#48494b;fill-rule:evenodd;stroke:none"
       id="rect3782"
       width="21.259842"
       height="21.259842"
       x="102.75592"
       y="889.37012" />
    <rect
       y="889.37012"
       x="127.55907"
       height="21.259842"
       width="21.259842"
       id="rect3784"
       style="fill:#48494b;fill-rule:evenodd;stroke:none" />
    <path
       style="fill:#a1aabb;fill-rule:evenodd;stroke:none"
       d="m 3.5455318,914.18482 0,21.25 21.2500002,0 0,-21.25 z m 1.53125,1.53125 18.1875002,0 0,18.1875 -18.1875002,0 z"
       id="rect3786"
       inkscape:connector-curvature="0"
       sodipodi:nodetypes="cccccccccc" />
    <rect
       y="914.17328"
       x="53.14962"
       height="21.259842"
       width="21.259842"
       id="rect3790"
       style="fill:#a1aabb;fill-rule:evenodd;stroke:none" />
    <rect
       style="fill:#a1aabb;fill-rule:evenodd;stroke:none"
       id="rect3792"
       width="21.259842"
       height="21.259842"
       x="77.952766"
       y="914.17328" />
    <rect
       y="914.17328"
       x="102.75592"
       height="21.259842"
       width="21.259842"
       id="rect3794"
       style="fill:#a1aabb;fill-rule:evenodd;stroke:none" />
    <rect
       style="fill:#a1aabb;fill-rule:evenodd;stroke:none"
       id="rect3796"
       width="21.259842"
       height="21.259842"
       x="127.55907"
       y="914.17328" />
    <rect
       style="fill:#5d7fbb;fill-rule:evenodd;stroke:none"
       id="rect3802"
       width="21.259842"
       height="21.259842"
       x="53.14962"
       y="938.97644" />
    <rect
       y="938.97644"
       x="77.952766"
       height="21.259842"
       width="21.259842"
       id="rect3804"
       style="fill:#a1aabb;fill-rule:evenodd;stroke:none" />
    <rect
       style="fill:#a1aabb;fill-rule:evenodd;stroke:none"
       id="rect3806"
       width="21.259842"
       height="21.259842"
       x="102.75592"
       y="938.97644" />
    <rect
       y="938.97644"
       x="127.55907"
       height="21.259842"
       width="21.259842"
       id="rect3808"
       style="fill:#a1aabb;fill-rule:evenodd;stroke:none" />
    <rect
       style="fill:#48494b;fill-rule:evenodd;stroke:none"
       id="rect3828"
       width="21.259842"
       height="21.259842"
       x="77.952766"
       y="963.77954" />
    <rect
       y="963.77954"
       x="102.75592"
       height="21.259842"
       width="21.259842"
       id="rect3830"
       style="fill:#48494b;fill-rule:evenodd;stroke:none" />
    <rect
       style="fill:#48494b;fill-rule:evenodd;stroke:none"
       id="rect3832"
       width="21.259842"
       height="21.259842"
       x="127.55907"
       y="963.77954" />
    <rect
       style="fill:#48494b;fill-rule:evenodd;stroke:none"
       id="rect3854"
       width="21.259842"
       height="21.259842"
       x="102.75592"
       y="988.5827" />
    <rect
       y="988.5827"
       x="127.55907"
       height="21.259842"
       width="21.259842"
       id="rect3856"
       style="fill:#48494b;fill-rule:evenodd;stroke:none" />
    <rect
       style="fill:#48494b;fill-rule:evenodd;stroke:none"
       id="rect3880"
       width="21.259842"
       height="21.259842"
       x="127.55907"
       y="1013.3858" />
    <path
       sodipodi:nodetypes="cccccccccc"
       inkscape:connector-curvature="0"
       id="path3925"
       d="m 3.5433168,938.97639 0,21.25 21.2500002,0 0,-21.25 z m 1.53125,1.53125 18.1875002,0 0,18.1875 -18.1875002,0 z"
       style="fill:#a1aabb;fill-rule:evenodd;stroke:none" />
    <path
       style="fill:#a1aabb;fill-rule:evenodd;stroke:none"
       d="m 28.346467,938.97639 0,21.25 21.25,0 0,-21.25 z m 1.53125,1.53125 18.1875,0 0,18.1875 -18.1875,0 z"
       id="path3927"
       inkscape:connector-curvature="0"
       sodipodi:nodetypes="cccccccccc" />
    <path
       style="fill:#48494b;fill-rule:evenodd;stroke:none"
       d="m 3.5433168,963.77954 0,21.25 21.2500002,0 0,-21.25 z m 1.53125,1.53125 18.1875002,0 0,18.1875 -18.1875002,0 z"
       id="path3933"
       inkscape:connector-curvature="0"
       sodipodi:nodetypes="cccccccccc" />
    <path
       sodipodi:nodetypes="cccccccccc"
       inkscape:connector-curvature="0"
       id="path3935"
       d="m 28.346467,963.77954 0,21.25 21.25,0 0,-21.25 z m 1.53125,1.53125 18.1875,0 0,18.1875 -18.1875,0 z"
       style="fill:#48494b;fill-rule:evenodd;stroke:none" />
    <path
       style="fill:#48494b;fill-rule:evenodd;stroke:none"
       d="m 53.149617,963.77954 0,21.25 21.25,0 0,-21.25 z m 1.53125,1.53125 18.1875,0 0,18.1875 -18.1875,0 z"
       id="path3937"
       inkscape:connector-curvature="0"
       sodipodi:nodetypes="cccccccccc" />
    <path
       sodipodi:nodetypes="cccccccccc"
       inkscape:connector-curvature="0"
       id="path3939"
       d="m 3.5433168,988.58269 0,21.25001 21.2500002,0 0,-21.25001 z m 1.53125,1.53125 18.1875002,0 0,18.18746 -18.1875002,0 z"
       style="fill:#48494b;fill-rule:evenodd;stroke:none" />
    <path
       style="fill:#48494b;fill-rule:evenodd;stroke:none"
       d="m 28.346467,988.58269 0,21.25001 21.25,0 0,-21.25001 z m 1.53125,1.53125 18.1875,0 0,18.18746 -18.1875,0 z"
       id="path3941"
       inkscape:connector-curvature="0"
       sodipodi:nodetypes="cccccccccc" />
    <path
       sodipodi:nodetypes="cccccccccc"
       inkscape:connector-curvature="0"
       id="path3943"
       d="m 53.149617,988.58269 0,21.25001 21.25,0 0,-21.25001 z m 1.53125,1.53125 18.1875,0 0,18.18746 -18.1875,0 z"
       style="fill:#48494b;fill-rule:evenodd;stroke:none" />
    <path
       style="fill:#48494b;fill-rule:evenodd;stroke:none"
       d="m 77.952766,988.58269 0,21.25001 21.249997,0 0,-21.25001 z m 1.53125,1.5312 18.187497,0 0,18.18751 -18.187497,0 z"
       id="path3945"
       inkscape:connector-curvature="0"
       sodipodi:nodetypes="cccccccccc" />
    <path
       style="fill:#48494b;fill-rule:evenodd;stroke:none"
       d="m 3.5433168,1013.3858 0,21.2501 21.2500002,0 0,-21.2501 z m 1.53125,1.5313 18.1875002,0 0,18.1875 -18.1875002,0 z"
       id="path3947"
       inkscape:connector-curvature="0"
       sodipodi:nodetypes="cccccccccc" />
    <path
       sodipodi:nodetypes="cccccccccc"
       inkscape:connector-curvature="0"
       id="path3949"
       d="m 28.346467,1013.3858 0,21.2501 21.25,0 0,-21.2501 z m 1.53125,1.5313 18.1875,0 0,18.1875 -18.1875,0 z"
       style="fill:#48494b;fill-rule:evenodd;stroke:none" />
    <path
       style="fill:#48494b;fill-rule:evenodd;stroke:none"
       d="m 53.149617,1013.3858 0,21.2501 21.25,0 0,-21.2501 z m 1.53125,1.5313 18.1875,0 0,18.1875 -18.1875,0 z"
       id="path3951"
       inkscape:connector-curvature="0"
       sodipodi:nodetypes="cccccccccc" />
    <path
       sodipodi:nodetypes="cccccccccc"
       inkscape:connector-curvature="0"
       id="path3953"
       d="m 77.952766,1013.3858 0,21.2501 21.249997,0 0,-21.2501 z m 1.53125,1.5312 18.187497,0 0,18.1876 -18.187497,0 z"
       style="fill:#48494b;fill-rule:evenodd;stroke:none" />
    <path
       style="fill:#48494b;fill-rule:evenodd;stroke:none"
       d="m 102.75591,1013.3858 0,21.2501 21.25,0 0,-21.2501 z m 1.53125,1.5312 18.1875,0 0,18.1876 -18.1875,0 z"
       id="path3955"
       inkscape:connector-curvature="0"
       sodipodi:nodetypes="cccccccccc" />
    <rect
       y="864.56696"
       x="3.5433071"
       height="21.259842"
       width="21.259842"
       id="rect3045"
       style="fill:#48494b;fill-rule:evenodd;stroke:none" />
    <rect
       style="fill:#48494b;fill-rule:evenodd;stroke:none"
       id="rect3047"
       width="21.259842"
       height="21.259842"
       x="28.346457"
       y="864.56696" />
    <rect
       y="864.56696"
       x="53.149609"
       height="21.259842"
       width="21.259842"
       id="rect3049"
       style="fill:#48494b;fill-rule:evenodd;stroke:none" />
    <rect
       style="fill:#48494b;fill-rule:evenodd;stroke:none"
       id="rect3051"
       width="21.259842"
       height="21.259842"
       x="77.952759"
       y="864.56696" />
    <rect
       y="864.56696"
       x="102.75591"
       height="21.259842"
       width="21.259842"
       id="rect3053"
       style="fill:#48494b;fill-rule:evenodd;stroke:none" />
    <rect
       style="fill:#48494b;fill-rule:evenodd;stroke:none"
       id="rect3055"
       width="21.259842"
       height="21.259842"
       x="127.55906"
       y="864.56696" />
    <path
       sodipodi:nodetypes="cccccccccc"
       inkscape:connector-curvature="0"
       id="path3042"
       d="m 3.5433071,889.4139 0,21.25 21.2499999,0 0,-21.25 z m 1.53125,1.53125 18.1874999,0 0,18.1875 -18.1874999,0 z"
       style="fill:#48494b;fill-rule:evenodd;stroke:none" />
    <path
       sodipodi:nodetypes="cccccccccc"
       inkscape:connector-curvature="0"
       id="path3044"
       d="m 28.346457,914.21705 0,21.25 21.25,0 0,-21.25 z m 1.53125,1.53125 18.1875,0 0,18.1875 -18.1875,0 z"
       style="fill:#a1aabb;fill-rule:evenodd;stroke:none" />
  </g>
</svg>
