<?xml version="1.0" encoding="UTF-8" standalone="no"?>
<!-- Created with Inkscape (http://www.inkscape.org/) -->

<svg
   xmlns:dc="http://purl.org/dc/elements/1.1/"
   xmlns:cc="http://creativecommons.org/ns#"
   xmlns:rdf="http://www.w3.org/1999/02/22-rdf-syntax-ns#"
   xmlns:svg="http://www.w3.org/2000/svg"
   xmlns="http://www.w3.org/2000/svg"
   xmlns:sodipodi="http://sodipodi.sourceforge.net/DTD/sodipodi-0.dtd"
   xmlns:inkscape="http://www.inkscape.org/namespaces/inkscape"
   width="4.1cm"
   height="6cm"
   id="svg2"
   version="1.1"
   viewBox="0 0 145.27559 212.59842"
   inkscape:version="0.91+devel+osxmenu r12894"
   sodipodi:docname="LLSP_System.svg">
  <defs
     id="defs4">
    <marker
       inkscape:stockid="Arrow2Mend"
       orient="auto"
       refY="0"
       refX="0"
       id="Arrow2Mend"
       style="overflow:visible">
      <path
         id="path4133"
         style="font-size:12px;fill-rule:evenodd;stroke-width:0.625;stroke-linejoin:round"
         d="M 8.7185878,4.0337352 -2.2072895,0.01601326 8.7185884,-4.0017078 c -1.7454984,2.3720609 -1.7354408,5.6174519 -6e-7,8.035443 z"
         transform="scale(-0.6,-0.6)"
         inkscape:connector-curvature="0" />
    </marker>
  </defs>
  <sodipodi:namedview
     id="base"
     pagecolor="#ffffff"
     bordercolor="#666666"
     borderopacity="1.0"
     inkscape:pageopacity="0.0"
     inkscape:pageshadow="2"
     inkscape:zoom="3.2146875"
     inkscape:cx="77.480313"
     inkscape:cy="113.38583"
     inkscape:document-units="mm"
     inkscape:current-layer="svg2"
     showgrid="true"
     units="cm"
     inkscape:window-width="1192"
     inkscape:window-height="892"
     inkscape:window-x="71"
     inkscape:window-y="23"
     inkscape:window-maximized="0"
     showguides="true"
     inkscape:guide-bbox="true">
    <inkscape:grid
       type="xygrid"
       id="grid2985"
       empspacing="5"
       visible="true"
       enabled="true"
       snapvisiblegridlinesonly="true"
       units="mm"
       spacingx="1mm"
       spacingy="1mm" />
  </sodipodi:namedview>
  <metadata
     id="metadata7">
    <rdf:RDF>
      <cc:Work
         rdf:about="">
        <dc:format>image/svg+xml</dc:format>
        <dc:type
           rdf:resource="http://purl.org/dc/dcmitype/StillImage" />
        <dc:title />
      </cc:Work>
    </rdf:RDF>
  </metadata>
  <g
     id="g3048"
     transform="translate(0,-839.76377)">
    <text
       xml:space="preserve"
       style="font-style:normal;font-weight:normal;font-size:40px;line-height:125%;font-family:Sans;text-align:end;letter-spacing:0px;word-spacing:0px;text-anchor:end;fill:#000000;fill-opacity:1;stroke:none"
       x="125.31572"
       y="849.69373"
       id="text3045"
       sodipodi:linespacing="125%"><tspan
         sodipodi:role="line"
         id="tspan3047"
         x="125.31572"
         y="849.69373"
         style="font-style:normal;font-variant:normal;font-weight:300;font-stretch:normal;font-size:12px;font-family:'Gill Sans';-inkscape-font-specification:'Gill Sans Light';text-align:end;text-anchor:end">execution times column</tspan></text>
    <path
       style="fill:none;stroke:#000000;stroke-width:0.75;stroke-linecap:round;stroke-linejoin:miter;stroke-miterlimit:4;stroke-dasharray:none;stroke-opacity:1;marker-end:url(#Arrow2Mend)"
       d="m 127.55906,-10.629929 c 7.08661,0 7.08661,3.5433068 7.08661,7.0866138 l 0,31.8897642"
       id="path3823"
       inkscape:connector-curvature="0"
       transform="translate(0,857.48031)"
       sodipodi:nodetypes="ccc" />
  </g>
  <g
     transform="translate(-3.5433071,-839.76378)"
     id="g4589">
    <text
       xml:space="preserve"
       style="font-style:normal;font-weight:normal;font-size:40px;line-height:125%;font-family:Sans;letter-spacing:0px;word-spacing:0px;fill:#000000;fill-opacity:1;stroke:none"
       x="67.322845"
       y="868.11023"
       id="text4085"
       sodipodi:linespacing="125%"><tspan
         sodipodi:role="line"
         id="tspan4087"
         x="67.322845"
         y="868.11023"
         style="font-style:normal;font-variant:normal;font-weight:300;font-stretch:normal;font-size:12px;font-family:'Gill Sans';-inkscape-font-specification:'Gill Sans Light';text-align:center;text-anchor:middle">one column per metric</tspan></text>
    <path
       style="fill:none;stroke:#000000;stroke-width:0.75;stroke-linecap:round;stroke-linejoin:round;stroke-miterlimit:4;stroke-dasharray:none;stroke-opacity:1"
       d="m 4.0430001,885.82679 c 0,-3.54331 3.5433067,-7.08661 7.0866139,-7.08661 17.716536,0 31.390071,0 49.106607,0 3.543306,0 7.086614,-3.54331 7.086614,-7.08662 0,3.54331 3.543307,7.08662 7.086614,7.08662 15.35433,0 26.865221,0 42.219551,0 3.54331,0 7.08662,3.5433 7.08662,7.08661"
       id="path4033"
       inkscape:connector-curvature="0"
       sodipodi:nodetypes="ccccccc" />
  </g>
  <rect
     y="49.606346"
     x="9.7411257e-06"
     height="120.47244"
     width="120.47244"
     id="rect4035"
     style="fill:#808785;fill-opacity:1;stroke:none" />
  <rect
     style="fill:#808785;fill-opacity:1;stroke:none"
     id="rect4041"
     width="21.259851"
     height="120.47244"
     x="124.01575"
     y="49.606346" />
  <g
     transform="translate(-3.5433071,-839.76378)"
     style="fill:#48494b"
     id="g4551">
    <rect
       style="fill:#48494b;fill-rule:evenodd;stroke:none"
       id="rect3006"
       width="21.259842"
       height="21.259842"
       x="3.5433173"
       y="889.37012" />
    <rect
       y="889.37012"
       x="28.346466"
       height="21.259842"
       width="21.259842"
       id="rect3776"
       style="fill:#48494b;fill-rule:evenodd;stroke:none" />
    <rect
       style="fill:#48494b;fill-rule:evenodd;stroke:none"
       id="rect3778"
       width="21.259842"
       height="21.259842"
       x="53.14962"
       y="889.37012" />
    <rect
       y="889.37012"
       x="77.952766"
       height="21.259842"
       width="21.259842"
       id="rect3780"
       style="fill:#48494b;fill-rule:evenodd;stroke:none" />
    <rect
       style="fill:#48494b;fill-rule:evenodd;stroke:none"
       id="rect3782"
       width="21.259842"
       height="21.259842"
       x="102.75592"
       y="889.37012" />
    <rect
       y="889.37012"
       x="127.55907"
       height="21.259842"
       width="21.259842"
       id="rect3784"
       style="fill:#48494b;fill-rule:evenodd;stroke:none" />
    <path
       style="fill:#48494b;fill-rule:evenodd;stroke:none"
       d="m 3.5455318,914.18482 0,21.25 21.2500002,0 0,-21.25 z m 1.53125,1.53125 18.1875002,0 0,18.1875 -18.1875002,0 z"
       id="rect3786"
       inkscape:connector-curvature="0"
       sodipodi:nodetypes="cccccccccc" />
    <rect
       style="fill:#48494b;fill-rule:evenodd;stroke:none"
       id="rect3788"
       width="21.259842"
       height="21.259842"
       x="28.346466"
       y="914.17328" />
    <rect
       y="914.17328"
       x="53.14962"
       height="21.259842"
       width="21.259842"
       id="rect3790"
       style="fill:#48494b;fill-rule:evenodd;stroke:none" />
    <rect
       style="fill:#48494b;fill-rule:evenodd;stroke:none"
       id="rect3792"
       width="21.259842"
       height="21.259842"
       x="77.952766"
       y="914.17328" />
    <rect
       y="914.17328"
       x="102.75592"
       height="21.259842"
       width="21.259842"
       id="rect3794"
       style="fill:#48494b;fill-rule:evenodd;stroke:none" />
    <rect
       style="fill:#48494b;fill-rule:evenodd;stroke:none"
       id="rect3796"
       width="21.259842"
       height="21.259842"
       x="127.55907"
       y="914.17328" />
    <rect
       style="fill:#48494b;fill-rule:evenodd;stroke:none"
       id="rect3802"
       width="21.259842"
       height="21.259842"
       x="53.14962"
       y="938.97644" />
    <rect
       y="938.97644"
       x="77.952766"
       height="21.259842"
       width="21.259842"
       id="rect3804"
       style="fill:#48494b;fill-rule:evenodd;stroke:none" />
    <rect
       style="fill:#48494b;fill-rule:evenodd;stroke:none"
       id="rect3806"
       width="21.259842"
       height="21.259842"
       x="102.75592"
       y="938.97644" />
    <rect
       y="938.97644"
       x="127.55907"
       height="21.259842"
       width="21.259842"
       id="rect3808"
       style="fill:#48494b;fill-rule:evenodd;stroke:none" />
    <rect
       style="fill:#48494b;fill-rule:evenodd;stroke:none"
       id="rect3828"
       width="21.259842"
       height="21.259842"
       x="77.952766"
       y="963.77954" />
    <rect
       y="963.77954"
       x="102.75592"
       height="21.259842"
       width="21.259842"
       id="rect3830"
       style="fill:#48494b;fill-rule:evenodd;stroke:none" />
    <rect
       style="fill:#48494b;fill-rule:evenodd;stroke:none"
       id="rect3832"
       width="21.259842"
       height="21.259842"
       x="127.55907"
       y="963.77954" />
    <rect
       style="fill:#48494b;fill-rule:evenodd;stroke:none"
       id="rect3854"
       width="21.259842"
       height="21.259842"
       x="102.75592"
       y="988.5827" />
    <rect
       y="988.5827"
       x="127.55907"
       height="21.259842"
       width="21.259842"
       id="rect3856"
       style="fill:#48494b;fill-rule:evenodd;stroke:none" />
    <rect
       style="fill:#48494b;fill-rule:evenodd;stroke:none"
       id="rect3880"
       width="21.259842"
       height="21.259842"
       x="127.55907"
       y="1013.3858" />
    <path
       sodipodi:nodetypes="cccccccccc"
       inkscape:connector-curvature="0"
       id="path3925"
       d="m 3.5433168,938.97639 0,21.25 21.2500002,0 0,-21.25 z m 1.53125,1.53125 18.1875002,0 0,18.1875 -18.1875002,0 z"
       style="fill:#48494b;fill-rule:evenodd;stroke:none" />
    <path
       style="fill:#48494b;fill-rule:evenodd;stroke:none"
       d="m 28.346467,938.97639 0,21.25 21.25,0 0,-21.25 z m 1.53125,1.53125 18.1875,0 0,18.1875 -18.1875,0 z"
       id="path3927"
       inkscape:connector-curvature="0"
       sodipodi:nodetypes="cccccccccc" />
    <path
       style="fill:#48494b;fill-rule:evenodd;stroke:none"
       d="m 3.5433168,963.77954 0,21.25 21.2500002,0 0,-21.25 z m 1.53125,1.53125 18.1875002,0 0,18.1875 -18.1875002,0 z"
       id="path3933"
       inkscape:connector-curvature="0"
       sodipodi:nodetypes="cccccccccc" />
    <path
       sodipodi:nodetypes="cccccccccc"
       inkscape:connector-curvature="0"
       id="path3935"
       d="m 28.346467,963.77954 0,21.25 21.25,0 0,-21.25 z m 1.53125,1.53125 18.1875,0 0,18.1875 -18.1875,0 z"
       style="fill:#48494b;fill-rule:evenodd;stroke:none" />
    <path
       style="fill:#48494b;fill-rule:evenodd;stroke:none"
       d="m 53.149617,963.77954 0,21.25 21.25,0 0,-21.25 z m 1.53125,1.53125 18.1875,0 0,18.1875 -18.1875,0 z"
       id="path3937"
       inkscape:connector-curvature="0"
       sodipodi:nodetypes="cccccccccc" />
    <path
       sodipodi:nodetypes="cccccccccc"
       inkscape:connector-curvature="0"
       id="path3939"
       d="m 3.5433168,988.58269 0,21.25001 21.2500002,0 0,-21.25001 z m 1.53125,1.53125 18.1875002,0 0,18.18746 -18.1875002,0 z"
       style="fill:#48494b;fill-rule:evenodd;stroke:none" />
    <path
       style="fill:#48494b;fill-rule:evenodd;stroke:none"
       d="m 28.346467,988.58269 0,21.25001 21.25,0 0,-21.25001 z m 1.53125,1.53125 18.1875,0 0,18.18746 -18.1875,0 z"
       id="path3941"
       inkscape:connector-curvature="0"
       sodipodi:nodetypes="cccccccccc" />
    <path
       sodipodi:nodetypes="cccccccccc"
       inkscape:connector-curvature="0"
       id="path3943"
       d="m 53.149617,988.58269 0,21.25001 21.25,0 0,-21.25001 z m 1.53125,1.53125 18.1875,0 0,18.18746 -18.1875,0 z"
       style="fill:#48494b;fill-rule:evenodd;stroke:none" />
    <path
       style="fill:#48494b;fill-rule:evenodd;stroke:none"
       d="m 77.952766,988.58269 0,21.25001 21.249997,0 0,-21.25001 z m 1.53125,1.5312 18.187497,0 0,18.18751 -18.187497,0 z"
       id="path3945"
       inkscape:connector-curvature="0"
       sodipodi:nodetypes="cccccccccc" />
    <path
       style="fill:#48494b;fill-rule:evenodd;stroke:none"
       d="m 3.5433168,1013.3858 0,21.2501 21.2500002,0 0,-21.2501 z m 1.53125,1.5313 18.1875002,0 0,18.1875 -18.1875002,0 z"
       id="path3947"
       inkscape:connector-curvature="0"
       sodipodi:nodetypes="cccccccccc" />
    <path
       sodipodi:nodetypes="cccccccccc"
       inkscape:connector-curvature="0"
       id="path3949"
       d="m 28.346467,1013.3858 0,21.2501 21.25,0 0,-21.2501 z m 1.53125,1.5313 18.1875,0 0,18.1875 -18.1875,0 z"
       style="fill:#48494b;fill-rule:evenodd;stroke:none" />
    <path
       style="fill:#48494b;fill-rule:evenodd;stroke:none"
       d="m 53.149617,1013.3858 0,21.2501 21.25,0 0,-21.2501 z m 1.53125,1.5313 18.1875,0 0,18.1875 -18.1875,0 z"
       id="path3951"
       inkscape:connector-curvature="0"
       sodipodi:nodetypes="cccccccccc" />
    <path
       sodipodi:nodetypes="cccccccccc"
       inkscape:connector-curvature="0"
       id="path3953"
       d="m 77.952766,1013.3858 0,21.2501 21.249997,0 0,-21.2501 z m 1.53125,1.5312 18.187497,0 0,18.1876 -18.187497,0 z"
       style="fill:#48494b;fill-rule:evenodd;stroke:none" />
    <path
       style="fill:#48494b;fill-rule:evenodd;stroke:none"
       d="m 102.75591,1013.3858 0,21.2501 21.25,0 0,-21.2501 z m 1.53125,1.5312 18.1875,0 0,18.1876 -18.1875,0 z"
       id="path3955"
       inkscape:connector-curvature="0"
       sodipodi:nodetypes="cccccccccc" />
  </g>
  <g
     transform="translate(-7.0866044,-841.30705)"
     id="g4052">
    <path
       d="m 66.81629,941.18347 -2.839931,3.22972 1.583876,0 2.361134,-1.81976 1.974487,1.81976 1.594882,0 -2.206948,-3.22972"
       style="font-style:normal;font-variant:normal;font-weight:normal;font-stretch:normal;font-size:22px;line-height:125%;font-family:'Gill Sans';-inkscape-font-specification:'Gill Sans';letter-spacing:0px;word-spacing:0px;fill:#ffffff;fill-opacity:1;stroke:none"
       id="path4050"
       inkscape:connector-curvature="0"
       sodipodi:nodetypes="ccccccc" />
    <text
       xml:space="preserve"
       style="font-style:normal;font-weight:normal;font-size:40px;line-height:125%;font-family:Sans;letter-spacing:0px;word-spacing:0px;fill:#ffffff;fill-opacity:1;stroke:none"
       x="59.260822"
       y="960.59393"
       id="text3961"
       sodipodi:linespacing="125%"><tspan
         sodipodi:role="line"
         id="tspan3963"
         x="59.260822"
         y="960.59393"
         style="font-style:italic;font-variant:normal;font-weight:bold;font-stretch:normal;font-size:22px;font-family:'Gill Sans';-inkscape-font-specification:'Gill Sans Bold Italic';fill:#ffffff">R</tspan></text>
  </g>
  <g
     transform="translate(70.031392,-841.20621)"
     id="g4060">
    <path
       sodipodi:nodetypes="ccccccc"
       inkscape:connector-curvature="0"
       id="path4616"
       style="font-style:normal;font-variant:normal;font-weight:normal;font-stretch:normal;font-size:22px;line-height:125%;font-family:'Gill Sans';-inkscape-font-specification:'Gill Sans';letter-spacing:0px;word-spacing:0px;fill:#ffffff;fill-opacity:1;stroke:none"
       d="m 65.316773,944.9045 -2.839931,3.22972 1.583876,0 2.361134,-1.81976 1.974487,1.81976 1.594882,0 -2.206948,-3.22972" />
    <text
       sodipodi:linespacing="125%"
       id="text4064"
       y="960.59393"
       x="59.260822"
       style="font-style:normal;font-weight:normal;font-size:40px;line-height:125%;font-family:Sans;letter-spacing:0px;word-spacing:0px;fill:#ffffff;fill-opacity:1;stroke:none"
       xml:space="preserve"><tspan
         style="font-style:italic;font-variant:normal;font-weight:bold;font-stretch:normal;font-size:22px;font-family:'Gill Sans';-inkscape-font-specification:'Gill Sans Bold Italic';fill:#ffffff"
         y="960.59393"
         x="59.260822"
         id="tspan4066"
         sodipodi:role="line">c</tspan></text>
    <path
       sodipodi:nodetypes="cc"
       inkscape:connector-curvature="0"
       id="path4074"
       d="m 60.054004,962.92135 9.29075,0"
       style="fill:none;stroke:#ffffff;stroke-width:1.5;stroke-linecap:butt;stroke-linejoin:miter;stroke-miterlimit:4;stroke-dasharray:none;stroke-opacity:1" />
  </g>
  <text
     sodipodi:linespacing="125%"
     id="text3984"
     y="187.61636"
     x="124.81419"
     style="font-style:normal;font-weight:normal;font-size:40px;line-height:125%;font-family:Sans;letter-spacing:0px;word-spacing:0px;fill:#ffffff;fill-opacity:1;stroke:none"
     xml:space="preserve"><tspan
       style="font-style:italic;font-size:22px;-inkscape-font-specification:'Sans Italic';fill:#ffffff"
       y="187.61636"
       x="124.81419"
       id="tspan3986"
       sodipodi:role="line"><tspan
         id="tspan4039"
         style="font-style:italic;font-variant:normal;font-weight:bold;font-stretch:normal;font-family:'Gill Sans';-inkscape-font-specification:'Gill Sans Bold Italic';fill:#ffffff">c</tspan><tspan
         dx="-1.15"
         id="tspan3988"
         style="font-style:italic;font-variant:normal;font-weight:bold;font-stretch:normal;font-size:13px;font-family:'Gill Sans';-inkscape-font-specification:'Gill Sans Bold Italic';baseline-shift:sub;fill:#ffffff">R</tspan></tspan></text>
  <g
     transform="translate(-3.5433071,-839.76378)"
     id="g4611">
    <text
       xml:space="preserve"
       style="font-style:normal;font-variant:normal;font-weight:normal;font-stretch:normal;font-size:12px;line-height:125%;font-family:'Gill Sans';-inkscape-font-specification:'Gill Sans';text-align:end;letter-spacing:0px;word-spacing:0px;text-anchor:end;fill:#000000;fill-opacity:1;stroke:none"
       x="124.01575"
       y="1051.5624"
       id="text4547"
       sodipodi:linespacing="125%"><tspan
         sodipodi:role="line"
         id="tspan4549"
         x="124.01575"
         y="1051.5624"
         style="font-style:normal;font-variant:normal;font-weight:300;font-stretch:normal;font-family:'Gill Sans';-inkscape-font-specification:'Gill Sans Light'">residual error</tspan></text>
    <path
       style="fill:none;stroke:#000000;stroke-width:0.75;stroke-linecap:round;stroke-linejoin:miter;stroke-miterlimit:4;stroke-dasharray:none;stroke-opacity:1;marker-end:url(#Arrow2Mend)"
       d="m 127.55906,1048.8189 c 10.62992,0 10.62992,-3.5433 10.62992,-10.6299"
       id="path4101"
       inkscape:connector-curvature="0"
       sodipodi:nodetypes="cc" />
  </g>
</svg>
