<?xml version="1.0" encoding="UTF-8" standalone="no"?>
<svg
   xmlns:dc="http://purl.org/dc/elements/1.1/"
   xmlns:cc="http://creativecommons.org/ns#"
   xmlns:rdf="http://www.w3.org/1999/02/22-rdf-syntax-ns#"
   xmlns:svg="http://www.w3.org/2000/svg"
   xmlns="http://www.w3.org/2000/svg"
   xmlns:sodipodi="http://sodipodi.sourceforge.net/DTD/sodipodi-0.dtd"
   xmlns:inkscape="http://www.inkscape.org/namespaces/inkscape"
   width="4.4cm"
   height="5.5cm"
   id="svg2"
   version="1.1"
   viewBox="0 0 155.9055 194.88188"
   inkscape:version="1.0.2 (e86c8708, 2021-01-15)"
   sodipodi:docname="LLSP_Move.svg">
  <defs
     id="defs4">
    <marker
       inkscape:stockid="Arrow2Mend"
       orient="auto"
       refY="0"
       refX="0"
       id="Arrow2Mend"
       style="overflow:visible">
      <path
         id="path4133"
         style="font-size:12px;fill-rule:evenodd;stroke-width:0.625;stroke-linejoin:round"
         d="M 8.7185878,4.0337352 -2.2072895,0.01601326 8.7185884,-4.0017078 c -1.7454984,2.3720609 -1.7354408,5.6174519 -6e-7,8.035443 z"
         transform="scale(-0.6,-0.6)"
         inkscape:connector-curvature="0" />
    </marker>
  </defs>
  <sodipodi:namedview
     id="base"
     pagecolor="#ffffff"
     bordercolor="#666666"
     borderopacity="1.0"
     inkscape:pageopacity="0.0"
     inkscape:pageshadow="2"
     inkscape:zoom="3.5069318"
     inkscape:cx="83.149608"
     inkscape:cy="103.93701"
     inkscape:document-units="mm"
     inkscape:current-layer="svg2"
     showgrid="true"
     units="cm"
     inkscape:window-width="1192"
     inkscape:window-height="892"
     inkscape:window-x="71"
     inkscape:window-y="25"
     inkscape:window-maximized="0"
     showguides="true"
     inkscape:guide-bbox="true"
     inkscape:document-rotation="0">
    <inkscape:grid
       type="xygrid"
       id="grid2985"
       empspacing="5"
       visible="true"
       enabled="true"
       snapvisiblegridlinesonly="true"
       units="mm"
       spacingx="3.5433069"
       spacingy="3.543307"
       originx="0"
       originy="0" />
  </sodipodi:namedview>
  <metadata
     id="metadata7">
    <rdf:RDF>
      <cc:Work
         rdf:about="">
        <dc:format>image/svg+xml</dc:format>
        <dc:type
           rdf:resource="http://purl.org/dc/dcmitype/StillImage" />
        <dc:title />
      </cc:Work>
    </rdf:RDF>
  </metadata>
  <g
     transform="translate(-3.5433102,-861.02358)"
     id="g4551">
    <rect
       style="fill:#48494b;fill-rule:evenodd;stroke:none"
       id="rect3006"
       width="21.259842"
       height="21.259842"
       x="3.5433173"
       y="889.37012" />
    <rect
       style="fill:#48494b;fill-rule:evenodd;stroke:none"
       id="rect3778"
       width="21.259842"
       height="21.259842"
       x="38.976368"
       y="889.37012" />
    <rect
       y="889.37012"
       x="63.779514"
       height="21.259842"
       width="21.259842"
       id="rect3780"
       style="fill:#48494b;fill-rule:evenodd;stroke:none" />
    <rect
       style="fill:#48494b;fill-rule:evenodd;stroke:none"
       id="rect3782"
       width="21.259842"
       height="21.259842"
       x="88.582672"
       y="889.37012" />
    <rect
       y="889.37012"
       x="113.38583"
       height="21.259842"
       width="21.259842"
       id="rect3776"
       style="fill:#a1aabb;fill-rule:evenodd;stroke:none" />
    <rect
       y="889.37012"
       x="138.18898"
       height="21.259842"
       width="21.259842"
       id="rect3784"
       style="fill:#48494b;fill-rule:evenodd;stroke:none" />
    <path
       style="fill:#48494b;fill-rule:evenodd;stroke:none"
       d="m 3.5455318,914.18482 0,21.25 21.2500002,0 0,-21.25 z m 1.53125,1.53125 18.1875002,0 0,18.1875 -18.1875002,0 z"
       id="rect3786"
       inkscape:connector-curvature="0"
       sodipodi:nodetypes="cccccccccc" />
    <rect
       y="914.17328"
       x="38.976368"
       height="21.259842"
       width="21.259842"
       id="rect3790"
       style="fill:#48494b;fill-rule:evenodd;stroke:none" />
    <rect
       style="fill:#48494b;fill-rule:evenodd;stroke:none"
       id="rect3792"
       width="21.259842"
       height="21.259842"
       x="63.779514"
       y="914.17328" />
    <rect
       y="914.17328"
       x="88.582672"
       height="21.259842"
       width="21.259842"
       id="rect3794"
       style="fill:#48494b;fill-rule:evenodd;stroke:none" />
    <rect
       style="fill:#a1aabb;fill-rule:evenodd;stroke:none"
       id="rect3788"
       width="21.259842"
       height="21.259842"
       x="113.38583"
       y="914.17328" />
    <rect
       style="fill:#48494b;fill-rule:evenodd;stroke:none"
       id="rect3796"
       width="21.259842"
       height="21.259842"
       x="138.18898"
       y="914.17328" />
    <path
       sodipodi:nodetypes="cccccccccc"
       inkscape:connector-curvature="0"
       id="path3925"
       d="m 3.5433168,938.97639 0,21.25 21.2500002,0 0,-21.25 z m 1.53125,1.53125 18.1875002,0 0,18.1875 -18.1875002,0 z"
       style="fill:#48494b;fill-rule:evenodd;stroke:none" />
    <rect
       style="fill:#5d7fbb;fill-rule:evenodd;stroke:none"
       id="rect3802"
       width="21.259842"
       height="21.259842"
       x="38.976368"
       y="938.97644" />
    <rect
       y="938.97644"
       x="63.779514"
       height="21.259842"
       width="21.259842"
       id="rect3804"
       style="fill:#48494b;fill-rule:evenodd;stroke:none" />
    <rect
       style="fill:#48494b;fill-rule:evenodd;stroke:none"
       id="rect3806"
       width="21.259842"
       height="21.259842"
       x="88.582672"
       y="938.97644" />
    <path
       style="fill:#a1aabb;fill-rule:evenodd;stroke:none"
       d="m 113.38582,938.97637 0,21.25 21.25,0 0,-21.25 z m 1.53125,1.53125 18.1875,0 0,18.1875 -18.1875,0 z"
       id="path3927"
       inkscape:connector-curvature="0"
       sodipodi:nodetypes="cccccccccc" />
    <rect
       y="938.97644"
       x="138.18898"
       height="21.259842"
       width="21.259842"
       id="rect3808"
       style="fill:#48494b;fill-rule:evenodd;stroke:none" />
    <path
       style="fill:#48494b;fill-rule:evenodd;stroke:none"
       d="m 3.5433168,963.77954 0,21.25 21.2500002,0 0,-21.25 z m 1.53125,1.53125 18.1875002,0 0,18.1875 -18.1875002,0 z"
       id="path3933"
       inkscape:connector-curvature="0"
       sodipodi:nodetypes="cccccccccc" />
    <path
       style="fill:#48494b;fill-rule:evenodd;stroke:none"
       d="m 38.976364,963.77952 0,21.25 21.25,0 0,-21.25 z m 1.53125,1.53125 18.1875,0 0,18.1875 -18.1875,0 z"
       id="path3937"
       inkscape:connector-curvature="0"
       sodipodi:nodetypes="cccccccccc" />
    <rect
       style="fill:#5d7fbb;fill-rule:evenodd;stroke:none"
       id="rect3828"
       width="21.259842"
       height="21.259842"
       x="63.779514"
       y="963.77954" />
    <rect
       y="963.77954"
       x="88.582672"
       height="21.259842"
       width="21.259842"
       id="rect3830"
       style="fill:#48494b;fill-rule:evenodd;stroke:none" />
    <path
       sodipodi:nodetypes="cccccccccc"
       inkscape:connector-curvature="0"
       id="path3935"
       d="m 113.38582,963.77952 0,21.25 21.25,0 0,-21.25 z m 1.53125,1.53125 18.1875,0 0,18.1875 -18.1875,0 z"
       style="fill:#a1aabb;fill-rule:evenodd;stroke:none" />
    <rect
       style="fill:#48494b;fill-rule:evenodd;stroke:none"
       id="rect3832"
       width="21.259842"
       height="21.259842"
       x="138.18898"
       y="963.77954" />
    <path
       sodipodi:nodetypes="cccccccccc"
       inkscape:connector-curvature="0"
       id="path3939"
       d="m 3.5433168,988.58269 0,21.25001 21.2500002,0 0,-21.25001 z m 1.53125,1.53125 18.1875002,0 0,18.18746 -18.1875002,0 z"
       style="fill:#48494b;fill-rule:evenodd;stroke:none" />
    <path
       sodipodi:nodetypes="cccccccccc"
       inkscape:connector-curvature="0"
       id="path3943"
       d="m 38.976364,988.58267 0,21.25003 21.25,0 0,-21.25003 z m 1.53125,1.53125 18.1875,0 0,18.18748 -18.1875,0 z"
       style="fill:#48494b;fill-rule:evenodd;stroke:none" />
    <path
       style="fill:#48494b;fill-rule:evenodd;stroke:none"
       d="m 63.779513,988.58267 0,21.25003 21.249997,0 0,-21.25003 z m 1.53125,1.5312 18.187497,0 0,18.18753 -18.187497,0 z"
       id="path3945"
       inkscape:connector-curvature="0"
       sodipodi:nodetypes="cccccccccc" />
    <rect
       style="fill:#5d7fbb;fill-rule:evenodd;stroke:none"
       id="rect3854"
       width="21.259842"
       height="21.259842"
       x="88.582672"
       y="988.5827" />
    <path
       style="fill:#a1aabb;fill-rule:evenodd;stroke:none"
       d="m 113.38582,988.58267 0,21.25003 21.25,0 0,-21.25003 z m 1.53125,1.53125 18.1875,0 0,18.18748 -18.1875,0 z"
       id="path3941"
       inkscape:connector-curvature="0"
       sodipodi:nodetypes="cccccccccc" />
    <rect
       y="988.5827"
       x="138.18898"
       height="21.259842"
       width="21.259842"
       id="rect3856"
       style="fill:#48494b;fill-rule:evenodd;stroke:none" />
    <path
       style="fill:#48494b;fill-rule:evenodd;stroke:none"
       d="m 3.5433168,1013.3858 0,21.2501 21.2500002,0 0,-21.2501 z m 1.53125,1.5313 18.1875002,0 0,18.1875 -18.1875002,0 z"
       id="path3947"
       inkscape:connector-curvature="0"
       sodipodi:nodetypes="cccccccccc" />
    <path
       style="fill:#48494b;fill-rule:evenodd;stroke:none"
       d="m 38.976364,1013.3858 0,21.2501 21.25,0 0,-21.2501 z m 1.53125,1.5313 18.1875,0 0,18.1875 -18.1875,0 z"
       id="path3951"
       inkscape:connector-curvature="0"
       sodipodi:nodetypes="cccccccccc" />
    <path
       sodipodi:nodetypes="cccccccccc"
       inkscape:connector-curvature="0"
       id="path3953"
       d="m 63.779513,1013.3858 0,21.2501 21.249997,0 0,-21.2501 z m 1.53125,1.5312 18.187497,0 0,18.1876 -18.187497,0 z"
       style="fill:#48494b;fill-rule:evenodd;stroke:none" />
    <path
       style="fill:#48494b;fill-rule:evenodd;stroke:none"
       d="m 88.582657,1013.3858 0,21.2501 21.250003,0 0,-21.2501 z m 1.53125,1.5312 18.187503,0 0,18.1876 -18.187503,0 z"
       id="path3955"
       inkscape:connector-curvature="0"
       sodipodi:nodetypes="cccccccccc" />
    <path
       sodipodi:nodetypes="cccccccccc"
       inkscape:connector-curvature="0"
       id="path3949"
       d="m 113.38582,1013.3858 0,21.2501 21.25,0 0,-21.2501 z m 1.53125,1.5313 18.1875,0 0,18.1875 -18.1875,0 z"
       style="fill:#a1aabb;fill-rule:evenodd;stroke:none" />
    <rect
       style="fill:#48494b;fill-rule:evenodd;stroke:none"
       id="rect3880"
       width="21.259842"
       height="21.259842"
       x="138.18898"
       y="1013.3858" />
  </g>
  <g
     transform="translate(-42.51969,-861.02362)"
     id="g3063">
    <text
       id="text3065"
       y="1051.5624"
       x="124.01575"
       style="font-style:normal;font-variant:normal;font-weight:normal;font-stretch:normal;line-height:0%;font-family:'Gill Sans';-inkscape-font-specification:'Gill Sans';text-align:end;letter-spacing:0px;word-spacing:0px;text-anchor:end;fill:#000000;fill-opacity:1;stroke:none"
       xml:space="preserve"><tspan
         id="tspan3044"
         style="font-style:normal;font-variant:normal;font-weight:300;font-stretch:normal;font-size:12px;line-height:100%;font-family:'Gill Sans';-inkscape-font-specification:'Gill Sans Light'"
         y="1051.5624"
         x="124.01575"
         sodipodi:role="line"><tspan
   style="font-style:normal;font-variant:normal;font-weight:300;font-stretch:normal;line-height:100%;font-family:'Gill Sans';-inkscape-font-specification:'Gill Sans Light'"
   id="tspan3042"
   dy="0.69999999 -0.69999999">② zero </tspan>elements</tspan></text>
    <path
       sodipodi:nodetypes="csc"
       inkscape:connector-curvature="0"
       id="path3071"
       d="m 127.55906,1048.8189 c 7.08661,0 10.62992,-3.5433 10.62992,-10.6299 0,-10.6299 0,-26.3465 0,-29.8898"
       style="fill:none;stroke:#000000;stroke-width:0.75;stroke-linecap:round;stroke-linejoin:miter;stroke-miterlimit:4;stroke-dasharray:none;stroke-opacity:1;marker-end:url(#Arrow2Mend)" />
  </g>
  <g
     transform="translate(-1.0307087e-5,-1064.9357)"
     id="g4611">
    <path
       style="fill:none;stroke:#000000;stroke-width:0.75;stroke-linecap:round;stroke-linejoin:miter;stroke-miterlimit:4;stroke-dasharray:none;stroke-opacity:1;marker-end:url(#Arrow2Mend)"
       d="m 28.346467,1093.2822 c 0,-7.0866 3.543307,-10.6299 10.629921,-10.6299 9.303817,0 55.493132,0 70.866142,0 7.08661,0 7.08661,0 10.62992,7.0866"
       id="path4101"
       inkscape:connector-curvature="0"
       sodipodi:nodetypes="cssc" />
    <g
       transform="translate(8.0000004,5.0865564)"
       id="g3399">
      <text
         id="text4547"
         y="1072.0225"
         x="9.7165451"
         style="font-style:normal;font-variant:normal;font-weight:normal;font-stretch:normal;line-height:0%;font-family:'Gill Sans';-inkscape-font-specification:'Gill Sans';text-align:start;letter-spacing:0px;word-spacing:0px;text-anchor:start;fill:#000000;fill-opacity:1;stroke:none"
         xml:space="preserve"><tspan
           style="font-style:normal;font-variant:normal;font-weight:300;font-stretch:normal;font-size:12px;line-height:100%;font-family:'Gill Sans';-inkscape-font-specification:'Gill Sans Light';text-align:start;word-spacing:0px;text-anchor:start"
           y="1072.0225"
           x="9.7165451"
           sodipodi:role="line"
           id="tspan3077"><tspan
             dy="0.69999999 -0.69999999"
             id="tspan3397"
             style="font-style:normal;font-variant:normal;font-weight:300;font-stretch:normal;line-height:100%;font-family:'Gill Sans';-inkscape-font-specification:'Gill Sans Light';text-align:start;word-spacing:0px;text-anchor:start">① move column to the right</tspan></tspan></text>
    </g>
  </g>
</svg>
