<?xml version="1.0" encoding="UTF-8" standalone="no"?>
<!-- Created with Inkscape (http://www.inkscape.org/) -->

<svg
   xmlns:dc="http://purl.org/dc/elements/1.1/"
   xmlns:cc="http://creativecommons.org/ns#"
   xmlns:rdf="http://www.w3.org/1999/02/22-rdf-syntax-ns#"
   xmlns:svg="http://www.w3.org/2000/svg"
   xmlns="http://www.w3.org/2000/svg"
   xmlns:sodipodi="http://sodipodi.sourceforge.net/DTD/sodipodi-0.dtd"
   xmlns:inkscape="http://www.inkscape.org/namespaces/inkscape"
   width="45cm"
   height="32cm"
   id="svg2"
   version="1.1"
   viewBox="0 0 1594.4882 1133.8583"
   inkscape:version="0.91+devel+osxmenu r12894"
   sodipodi:docname="Cover.svg">
  <metadata
     id="metadata65">
    <rdf:RDF>
      <cc:Work
         rdf:about="">
        <dc:format>image/svg+xml</dc:format>
        <dc:type
           rdf:resource="http://purl.org/dc/dcmitype/StillImage" />
        <dc:title />
      </cc:Work>
    </rdf:RDF>
  </metadata>
  <defs
     id="defs4" />
  <sodipodi:namedview
     id="base"
     pagecolor="#ffffff"
     bordercolor="#666666"
     borderopacity="1.0"
     inkscape:pageopacity="0"
     inkscape:pageshadow="2"
     inkscape:zoom="0.66245342"
     inkscape:cx="850.3937"
     inkscape:cy="604.72441"
     inkscape:document-units="cm"
     inkscape:current-layer="svg2"
     showgrid="false"
     units="cm"
     showguides="true"
     inkscape:guide-bbox="true"
     inkscape:window-width="1325"
     inkscape:window-height="1032"
     inkscape:window-x="68"
     inkscape:window-y="23"
     inkscape:window-maximized="0" />
  <rect
     y="-17.716541"
     x="-17.716536"
     height="1169.2914"
     width="1629.9213"
     id="rect5114"
     style="fill:#808785;fill-opacity:1;stroke-width:6.02362204;stroke-miterlimit:4;stroke-dasharray:none" />
  <g
     style="fill:#ffffff;fill-opacity:1"
     id="g4761"
     transform="translate(0,81.497365)">
    <path
       id="path22"
       style="fill:#ffffff;fill-opacity:1;fill-rule:nonzero;stroke:none"
       d="m 917.28206,59.8068 2.13625,0 0,15.25 -2.25,0 0,-11.8775 -4.74262,5.8775 -0.40238,0 -4.73,-5.8775 0,11.8775 -2.125,0 0,-15.25 2.04737,0 5.02788,6.24375 5.0385,-6.24375"
       inkscape:connector-curvature="0" />
    <path
       id="path24"
       style="fill:#ffffff;fill-opacity:1;fill-rule:nonzero;stroke:none"
       d="m 924.29331,75.0568 2.125,0 0,-15.25 -2.125,0 0,15.25 z"
       inkscape:connector-curvature="0" />
    <path
       id="path26"
       style="fill:#ffffff;fill-opacity:1;fill-rule:nonzero;stroke:none"
       d="m 944.41831,71.4318 0,2.375 c -1.6025,0.9175 -3.45375,1.375 -5.55275,1.375 -1.7285,0 -3.15087,-0.34125 -4.33987,-1.025 -1.22363,-0.7175 -2.12738,-1.6275 -2.81976,-2.82875 -0.70362,-1.20875 -1.03762,-2.50125 -1.03762,-3.89875 0,-2.26125 0.794,-4.0875 2.38238,-5.60125 1.58787,-1.52125 3.55125,-2.27125 5.88275,-2.27125 1.60112,0 3.39237,0.4175 5.35987,1.25 l 0,2.375 c -1.7925,-1 -3.54625,-1.5 -5.25975,-1.5 -1.79538,0 -3.21538,0.55 -4.375,1.64875 -1.19925,1.09125 -1.74025,2.475 -1.74025,4.12875 0,1.65875 0.56887,3.03875 1.7075,4.11375 1.10987,1.0675 2.59225,1.60875 4.36475,1.60875 1.829,0 3.66275,-0.5825 5.42775,-1.75"
       inkscape:connector-curvature="0" />
    <path
       id="path28"
       style="fill:#ffffff;fill-opacity:1;fill-rule:nonzero;stroke:none"
       d="m 959.41831,59.8068 2.125,0 0,15.25 -2.125,0 0,-6.625 -8.75,0 0,6.625 -2.125,0 0,-15.25 2.125,0 0,6.625 8.75,0 0,-6.625"
       inkscape:connector-curvature="0" />
    <path
       id="path30"
       style="fill:#ffffff;fill-opacity:1;fill-rule:nonzero;stroke:none"
       d="m 971.15081,59.6818 1.54875,0 6.96875,15.375 -2.23875,0 -2.05125,-4.5 -6.57,0 -1.89625,4.5 -2.24375,0 6.4825,-15.375 z m 3.34625,8.875 -2.515,-5.52125 -2.3275,5.52125 4.84375,0"
       inkscape:connector-curvature="0" />
    <path
       id="path32"
       style="fill:#ffffff;fill-opacity:1;fill-rule:nonzero;stroke:none"
       d="m 982.66831,59.8068 8.625,0 0,2 -6.5,0 0,4.625 6.375,0 0,2 -6.375,0 0,4.625 6.75,0 0,2 -8.875,0 0,-15.25"
       inkscape:connector-curvature="0" />
    <path
       id="path34"
       style="fill:#ffffff;fill-opacity:1;fill-rule:nonzero;stroke:none"
       d="m 995.41831,59.8068 2.125,0 0,13.25 6.87499,0 0,2 -8.99999,0 0,-15.25"
       inkscape:connector-curvature="0" />
    <path
       id="path36"
       style="fill:#ffffff;fill-opacity:1;fill-rule:nonzero;stroke:none"
       d="m 1014.1683,75.0568 0,-15.25 3.83,0 c 1.52,0 2.7738,0.3825 3.6813,1.14625 0.905,0.75625 1.3637,1.79625 1.3637,3.0975 0,0.8475 -0.2212,1.65375 -0.6637,2.30125 -0.4713,0.6325 -1.0775,1.13125 -1.9038,1.45125 0.46,0.2825 0.9475,0.76375 1.4038,1.32 0.4287,0.53375 1.1075,1.52 1.9537,2.8925 0.5175,0.8375 0.9575,1.515 1.2775,1.95125 l 0.8088,1.09 -2.6013,0 -0.6662,-1.0025 c -0.056,-0.0775 -0.065,-0.09875 -0.1313,-0.185 l -0.4237,-0.6 -0.6775,-1.11375 -0.73,-1.1875 c -0.4575,-0.6375 -0.8663,-1.1225 -1.2463,-1.4925 -0.3887,-0.385 -0.7237,-0.63625 -1.0287,-0.79875 -0.3463,-0.20375 -0.82,-0.24625 -1.5425,-0.24625 l -0.5763,0 0,6.625 -2.125,0 0,0.0012 z m 2.7925,-13.375 -0.6675,0 0,4.75 0.8463,0 c 1.0962,0 1.9025,-0.0925 2.3225,-0.27875 0.4062,-0.21875 0.7475,-0.46875 0.98,-0.84625 0.2262,-0.3775 0.3512,-0.80625 0.3512,-1.2875 0,-0.5025 -0.13,-0.9025 -0.39,-1.2875 -0.2962,-0.40125 -0.625,-0.655 -1.0962,-0.8125 -0.4763,-0.19625 -1.2538,-0.23875 -2.3463,-0.23875"
       inkscape:connector-curvature="0" />
    <path
       id="path38"
       style="fill:#ffffff;fill-opacity:1;fill-rule:nonzero;stroke:none"
       d="m 1035.1921,59.5568 c 2.3462,0 4.3125,0.745 5.8775,2.23625 1.5562,1.4525 2.3475,3.3575 2.3475,5.60375 -0.041,2.21625 -0.79,4.105 -2.3688,5.5775 -1.5812,1.4575 -3.5712,2.2075 -5.975,2.2075 -2.3062,0 -4.2075,-0.735 -5.7362,-2.2075 -1.5425,-1.48625 -2.2925,-3.3175 -2.2925,-5.535 0,-2.2775 0.77,-4.15625 2.3087,-5.64625 1.52,-1.5275 3.4863,-2.23625 5.84,-2.23625 l 0,0 z m 0.081,2.125 c -1.7775,0 -3.175,0.5425 -4.2962,1.62875 -1.1425,1.085 -1.6838,2.4725 -1.6838,4.15875 0,1.625 0.5625,2.9975 1.6875,4.08375 1.105,1.04625 2.5363,1.62875 4.2288,1.62875 1.685,0 3.1175,-0.55375 4.2537,-1.66 1.1213,-1.1375 1.705,-2.4875 1.705,-4.13875 0,-1.63125 -0.5687,-2.9575 -1.705,-4.055 -1.1512,-1.105 -2.5337,-1.64625 -4.19,-1.64625"
       inkscape:connector-curvature="0" />
    <path
       id="path40"
       style="fill:#ffffff;fill-opacity:1;fill-rule:nonzero;stroke:none"
       d="m 1047.6683,75.0568 2.125,0 0,-15.25 -2.125,0 0,15.25 z"
       inkscape:connector-curvature="0" />
    <path
       id="path42"
       style="fill:#ffffff;fill-opacity:1;fill-rule:nonzero;stroke:none"
       d="m 1053.4183,59.8068 12.875,0 0,2 -5.375,0 0,13.25 -2.25,0 0,-13.25 -5.25,0 0,-2"
       inkscape:connector-curvature="0" />
    <path
       id="path44"
       style="fill:#ffffff;fill-opacity:1;fill-rule:nonzero;stroke:none"
       d="m 1068.9183,59.8068 13.125,0 -9.6737,13.25 9.6737,0 0,2 -13.75,0 9.6488,-13.25 -9.0238,0 0,-2"
       inkscape:connector-curvature="0" />
    <path
       id="path46"
       style="fill:#ffffff;fill-opacity:1;fill-rule:nonzero;stroke:none"
       d="m 1089.3871,68.64805 -1.68,-1.01125 c -1.065,-0.66625 -1.8013,-1.2675 -2.2463,-1.885 -0.46,-0.64125 -0.6675,-1.3275 -0.6675,-2.13125 0,-1.2275 0.4163,-2.18375 1.25,-2.935 0.8325,-0.75375 1.915,-1.12875 3.2463,-1.12875 1.2325,0 2.4412,0.34375 3.5037,1.03125 l 0,2.5 c -1.1,-1.03125 -2.285,-1.53125 -3.5525,-1.53125 -0.7375,0 -1.3,0.16125 -1.76,0.4825 -0.48,0.28625 -0.6875,0.73375 -0.6875,1.23375 0,0.41375 0.1788,0.86125 0.535,1.25 0.345,0.3575 0.9075,0.80625 1.6525,1.25625 l 1.66,1.01 c 1.8188,1.10125 2.7775,2.5625 2.7775,4.275 0,1.2175 -0.4075,2.2125 -1.2225,2.975 -0.8237,0.72625 -1.875,1.1425 -3.18,1.1425 -1.5325,0 -2.8662,-0.46875 -4.0975,-1.40625 l 0,-2.75 c 1.1825,1.49 2.55,2.28125 4.1038,2.28125 0.6512,0 1.2562,-0.19 1.7125,-0.5725 0.4337,-0.39875 0.6837,-0.86 0.6837,-1.43375 0,-0.97125 -0.6775,-1.815 -2.0312,-2.6525"
       inkscape:connector-curvature="0" />
    <path
       id="path48"
       style="fill:#ffffff;fill-opacity:1;fill-rule:nonzero;stroke:none"
       d="m 1110.5433,71.4318 0,2.375 c -1.6025,0.9175 -3.4537,1.375 -5.5525,1.375 -1.7287,0 -3.1512,-0.34125 -4.34,-1.025 -1.2237,-0.7175 -2.1275,-1.6275 -2.82,-2.82875 -0.7037,-1.20875 -1.0375,-2.50125 -1.0375,-3.89875 0,-2.26125 0.7938,-4.0875 2.3825,-5.60125 1.5875,-1.52125 3.5513,-2.27125 5.8825,-2.27125 1.6013,0 3.3925,0.4175 5.36,1.25 l 0,2.375 c -1.7925,-1 -3.5462,-1.5 -5.26,-1.5 -1.795,0 -3.215,0.55 -4.375,1.64875 -1.1987,1.09125 -1.74,2.475 -1.74,4.12875 0,1.65875 0.5688,3.03875 1.7075,4.11375 1.11,1.0675 2.5925,1.60875 4.365,1.60875 1.8288,0 3.6625,-0.5825 5.4275,-1.75"
       inkscape:connector-curvature="0" />
    <path
       id="path50"
       style="fill:#ffffff;fill-opacity:1;fill-rule:nonzero;stroke:none"
       d="m 1125.5433,59.8068 2.125,0 0,15.25 -2.125,0 0,-6.625 -8.75,0 0,6.625 -2.125,0 0,-15.25 2.125,0 0,6.625 8.75,0 0,-6.625"
       inkscape:connector-curvature="0" />
    <path
       id="path52"
       style="fill:#ffffff;fill-opacity:1;fill-rule:nonzero;stroke:none"
       d="m 906.66831,296.6818 0,-30.4975 9.68012,0 c 2.89213,0 5.23351,0.78375 6.96638,2.35 1.727,1.5325 2.601,3.67 2.601,6.30875 -0.0415,1.75625 -0.44475,3.33375 -1.33387,4.6975 -0.90238,1.32625 -2.10751,2.35125 -3.65238,2.96875 -1.54988,0.59125 -3.76125,0.92375 -6.649,0.92375 l -3.23875,0 0,13.25 -4.375,0 10e-4,-10e-4 z m 8.916,-26.6225 -4.541,0 0,9.5 4.80275,0 c 1.76713,0 3.15862,-0.41625 4.122,-1.25 0.94775,-0.83375 1.44775,-2.025 1.44775,-3.57625 -0.0415,-3.1325 -1.94375,-4.67375 -5.8325,-4.67375"
       inkscape:connector-curvature="0" />
    <path
       id="path54"
       style="fill:#ffffff;fill-opacity:1;fill-rule:nonzero;stroke:none"
       d="m 932.79331,296.6818 0,-30.4975 7.605,0 c 3.03625,0 5.50875,0.765 7.3125,2.29625 1.78875,1.515 2.705,3.60125 2.705,6.21125 -0.0412,1.775 -0.4425,3.31625 -1.32625,4.61375 -0.9,1.25625 -2.15125,2.26625 -3.8025,2.90875 0.91875,0.62875 1.895,1.51125 2.8125,2.615 0.89875,1.09625 2.21875,3.0275 3.90375,5.77375 1.0325,1.71375 1.91125,3.02875 2.54875,3.9 l 1.61375,2.18 -5.185,0 -1.3275,-2.00625 c -0.08,-0.1125 -0.13,-0.19625 -0.26,-0.37125 l -0.85,-1.19875 -1.35,-2.225 -1.4575,-2.3775 c -0.92125,-1.27375 -1.71625,-2.245 -2.455,-2.985 -0.775,-0.76875 -1.40375,-1.2725 -1.9975,-1.5975 -0.6335,-0.365 -1.595,-0.49 -2.99737,-0.49 l -1.11763,0 0,13.25 -4.375,0 z m 5.67387,-26.7475 -1.29887,0 0,9.625 1.6465,0 c 2.186,0 3.6985,-0.18875 4.5135,-0.56625 0.805,-0.39875 1.45125,-0.95 1.90625,-1.7125 0.4325,-0.7975 0.68125,-1.63375 0.68125,-2.61 -0.0412,-0.99875 -0.2525,-1.83 -0.7575,-2.6075 -0.5425,-0.78 -1.215,-1.32875 -2.1325,-1.64875 -0.9525,-0.35625 -2.43612,-0.48 -4.55863,-0.48"
       inkscape:connector-curvature="0" />
    <path
       id="path56"
       style="fill:#ffffff;fill-opacity:1;fill-rule:nonzero;stroke:none"
       d="m 972.33081,266.0593 2.985,0 13.72625,30.6225 -4.45875,0 -4.045,-9 -12.9725,0 -3.7925,9 -4.47875,0 13.0375,-30.6225 -10e-4,0 z m 6.46875,17.7475 -4.94375,-11.05875 -4.66,11.05875 9.60375,0"
       inkscape:connector-curvature="0" />
    <path
       id="path58"
       style="fill:#ffffff;fill-opacity:1;fill-rule:nonzero;stroke:none"
       d="m 1019.7908,289.6818 0,4.75 c -3.2325,1.75 -6.8762,2.625 -11.055,2.625 -3.4162,0 -6.2725,-0.68375 -8.6362,-2.0525 -2.38379,-1.3925 -4.23629,-3.25375 -5.61504,-5.65625 -1.4,-2.41625 -2.06625,-5.00125 -2.06625,-7.7975 0,-4.47875 1.575,-8.1725 4.725,-11.19875 3.11629,-3.04375 7.03379,-4.5425 11.65249,-4.5425 3.1838,0 6.725,0.83375 10.6213,2.5 l 0,4.625 c -3.5875,-2 -7.015,-3 -10.4025,-3 -3.5063,0 -6.3588,1.105 -8.6538,3.315 -2.31624,2.1875 -3.44124,4.97625 -3.44124,8.30125 0,3.315 1.13125,6.11125 3.39504,8.27 2.2575,2.155 5.1587,3.23875 8.6837,3.23875 3.6588,0 7.2838,-1.125 10.795,-3.375"
       inkscape:connector-curvature="0" />
    <path
       id="path60"
       style="fill:#ffffff;fill-opacity:1;fill-rule:nonzero;stroke:none"
       d="m 1025.7933,266.1843 25.4975,0 0,3.875 -10.6225,0 0,26.6225 -4.375,0 0,-26.6225 -10.5,0 0,-3.875"
       inkscape:connector-curvature="0" />
    <path
       id="path62"
       style="fill:#ffffff;fill-opacity:1;fill-rule:nonzero;stroke:none"
       d="m 1058.2933,296.6818 4.375,0 0,-30.498 -4.375,0 0,30.498 z"
       inkscape:connector-curvature="0" />
    <path
       id="path64"
       style="fill:#ffffff;fill-opacity:1;fill-rule:nonzero;stroke:none"
       d="m 1098.5408,289.6818 0,4.75 c -3.2325,1.75 -6.8762,2.625 -11.055,2.625 -3.4162,0 -6.2725,-0.68375 -8.6362,-2.0525 -2.3838,-1.3925 -4.2363,-3.25375 -5.615,-5.65625 -1.4,-2.41625 -2.0663,-5.00125 -2.0663,-7.7975 0,-4.47875 1.575,-8.1725 4.725,-11.19875 3.1163,-3.04375 7.0338,-4.5425 11.6525,-4.5425 3.1838,0 6.725,0.83375 10.6213,2.5 l 0,4.625 c -3.5875,-2 -7.015,-3 -10.4025,-3 -3.5063,0 -6.3588,1.105 -8.6538,3.315 -2.3162,2.1875 -3.4412,4.97625 -3.4412,8.30125 0,3.315 1.1312,6.11125 3.395,8.27 2.2575,2.155 5.1587,3.23875 8.6837,3.23875 3.6588,0 7.2838,-1.125 10.795,-3.375"
       inkscape:connector-curvature="0" />
    <path
       id="path66"
       style="fill:#ffffff;fill-opacity:1;fill-rule:nonzero;stroke:none"
       d="m 1117.8308,266.0593 2.985,0 13.7263,30.6225 -4.4588,0 -4.045,-9 -12.9725,0 -3.7925,9 -4.4787,0 13.0375,-30.6225 0,0 z m 6.4688,17.7475 -4.9438,-11.05875 -4.66,11.05875 9.6038,0"
       inkscape:connector-curvature="0" />
    <path
       id="path68"
       style="fill:#ffffff;fill-opacity:1;fill-rule:nonzero;stroke:none"
       d="m 1141.0433,266.1843 4.375,0 0,26.4975 13.7475,0 0,4 -18.1225,0 0,-30.4975"
       inkscape:connector-curvature="0" />
    <path
       id="path70"
       style="fill:#ffffff;fill-opacity:1;fill-rule:nonzero;stroke:none"
       d="m 1178.5433,296.6818 0,-30.4975 7.605,0 c 3.0363,0 5.5088,0.765 7.3125,2.29625 1.7888,1.515 2.705,3.60125 2.705,6.21125 -0.041,1.775 -0.4425,3.31625 -1.3262,4.61375 -0.9,1.25625 -2.1513,2.26625 -3.8025,2.90875 0.9187,0.62875 1.895,1.51125 2.8125,2.615 0.8987,1.09625 2.2187,3.0275 3.9037,5.77375 1.0325,1.71375 1.9113,3.02875 2.5488,3.9 l 1.6137,2.18 -5.185,0 -1.3275,-2.00625 c -0.08,-0.1125 -0.13,-0.19625 -0.26,-0.37125 l -0.85,-1.19875 -1.35,-2.225 -1.4575,-2.3775 c -0.9212,-1.27375 -1.7162,-2.245 -2.455,-2.985 -0.775,-0.76875 -1.4037,-1.2725 -1.9975,-1.5975 -0.6337,-0.365 -1.595,-0.49 -2.9975,-0.49 l -1.1175,0 0,13.25 -4.375,0 z m 5.6738,-26.7475 -1.2988,0 0,9.625 1.6463,0 c 2.1862,0 3.6987,-0.18875 4.5137,-0.56625 0.805,-0.39875 1.4513,-0.95 1.9063,-1.7125 0.4325,-0.7975 0.6812,-1.63375 0.6812,-2.61 -0.041,-0.99875 -0.2525,-1.83 -0.7575,-2.6075 -0.5425,-0.78 -1.215,-1.32875 -2.1325,-1.64875 -0.9525,-0.35625 -2.4362,-0.48 -4.5587,-0.48"
       inkscape:connector-curvature="0" />
    <path
       id="path72"
       style="fill:#ffffff;fill-opacity:1;fill-rule:nonzero;stroke:none"
       d="m 1208.4183,266.1843 17.2475,0 0,3.875 -12.8725,0 0,9.375 12.3725,0 0,3.8725 -12.3725,0 0,9.5 13.2475,0 0,3.875 -17.6225,0 0,-30.4975"
       inkscape:connector-curvature="0" />
    <path
       id="path74"
       style="fill:#ffffff;fill-opacity:1;fill-rule:nonzero;stroke:none"
       d="m 1243.3308,266.0593 2.985,0 13.7263,30.6225 -4.4588,0 -4.045,-9 -12.9725,0 -3.7925,9 -4.4787,0 13.0375,-30.6225 0,0 z m 6.4688,17.7475 -4.9438,-11.05875 -4.66,11.05875 9.6038,0"
       inkscape:connector-curvature="0" />
    <path
       id="path76"
       style="fill:#ffffff;fill-opacity:1;fill-rule:nonzero;stroke:none"
       d="m 1266.5433,266.1843 4.375,0 0,26.4975 13.7475,0 0,4 -18.1225,0 0,-30.4975"
       inkscape:connector-curvature="0" />
    <path
       id="path78"
       style="fill:#ffffff;fill-opacity:1;fill-rule:nonzero;stroke:none"
       d="m 1286.9183,286.0568 10.875,0 0,-4.25 -10.875,0 0,4.25 z"
       inkscape:connector-curvature="0" />
    <path
       id="path80"
       style="fill:#ffffff;fill-opacity:1;fill-rule:nonzero;stroke:none"
       d="m 1300.4183,266.1843 25.4975,0 0,3.875 -10.6225,0 0,26.6225 -4.375,0 0,-26.6225 -10.5,0 0,-3.875"
       inkscape:connector-curvature="0" />
    <path
       id="path82"
       style="fill:#ffffff;fill-opacity:1;fill-rule:nonzero;stroke:none"
       d="m 1333.0433,296.6818 4.375,0 0,-30.498 -4.375,0 0,30.498 z"
       inkscape:connector-curvature="0" />
    <path
       id="path84"
       style="fill:#ffffff;fill-opacity:1;fill-rule:nonzero;stroke:none"
       d="m 1371.1446,266.1843 4.1462,0 0,30.4975 -4.375,0 0,-23.705 -9.42,11.83 -0.805,0 -9.3987,-11.83 0,23.705 -4.375,0 0,-30.4975 4.2112,0 9.9963,12.58625 10.02,-12.58625"
       inkscape:connector-curvature="0" />
    <path
       id="path86"
       style="fill:#ffffff;fill-opacity:1;fill-rule:nonzero;stroke:none"
       d="m 1385.0433,266.1843 17.2475,0 0,3.875 -12.8725,0 0,9.375 12.3725,0 0,3.8725 -12.3725,0 0,9.5 13.2475,0 0,3.875 -17.6225,0 0,-30.4975"
       inkscape:connector-curvature="0" />
    <path
       id="path88"
       style="fill:#ffffff;fill-opacity:1;fill-rule:nonzero;stroke:none"
       d="m 945.69206,316.0593 4.35,0 -12.2815,30.4975 -1.04488,0 -9.86137,-24.69375 -9.9575,24.69375 -1.08987,0 -12.26363,-30.4975 4.395,0 8.4175,20.93375 8.44138,-20.93375 4.19487,0 8.36125,20.93375 8.3375,-20.93375"
       inkscape:connector-curvature="0" />
    <path
       id="path90"
       style="fill:#ffffff;fill-opacity:1;fill-rule:nonzero;stroke:none"
       d="m 956.54331,346.5568 4.375,0 0,-30.498 -4.375,0 0,30.498 z"
       inkscape:connector-curvature="0" />
    <path
       id="path92"
       style="fill:#ffffff;fill-opacity:1;fill-rule:nonzero;stroke:none"
       d="m 968.04331,316.0593 25.4975,0 0,3.875 -10.6225,0 0,26.6225 -4.375,0 0,-26.6225 -10.5,0 0,-3.875"
       inkscape:connector-curvature="0" />
    <path
       id="path94"
       style="fill:#ffffff;fill-opacity:1;fill-rule:nonzero;stroke:none"
       d="m 1022.0408,316.0593 4.375,0 0,30.4975 -4.375,0 0,-13.375 -16.9975,0 0,13.375 -4.375,0 0,-30.4975 4.375,0 0,13.125 16.9975,0 0,-13.125"
       inkscape:connector-curvature="0" />
    <path
       id="path96"
       style="fill:#ffffff;fill-opacity:1;fill-rule:nonzero;stroke:none"
       d="m 1048.6683,316.0593 4.375,0 0,26.4975 13.7475,0 0,4 -18.1225,0 0,-30.4975"
       inkscape:connector-curvature="0" />
    <path
       id="path98"
       style="fill:#ffffff;fill-opacity:1;fill-rule:nonzero;stroke:none"
       d="m 1088.4658,315.6843 c 4.6913,0 8.625,1.49 11.7563,4.47125 3.1125,2.94875 4.695,6.71625 4.695,11.2075 -0.041,4.47375 -1.58,8.21 -4.74,11.15375 -3.1613,2.91625 -7.1425,4.41625 -11.9513,4.41625 -4.6075,0 -8.4125,-1.47125 -11.4712,-4.41625 -3.0863,-2.97125 -4.5863,-6.6325 -4.5863,-11.06625 0,-4.555 1.54,-8.315 4.6188,-11.295 3.04,-3.0125 6.9712,-4.47125 11.6775,-4.47125 l 0,0 z m 0.1638,4.125 c -3.515,0 -6.3513,1.09125 -8.5963,3.275 -2.2825,2.175 -3.365,4.97125 -3.365,8.36125 0,3.28625 1.125,6.0275 3.3775,8.21125 2.25,2.15 5.0688,3.275 8.4538,3.275 3.3712,0 6.235,-1.11375 8.5075,-3.34 2.2437,-2.23875 3.41,-5.00125 3.41,-8.32 -0.041,-3.26 -1.1363,-5.94875 -3.41,-8.15375 -2.3025,-2.225 -5.0663,-3.30875 -8.3775,-3.30875"
       inkscape:connector-curvature="0" />
    <path
       id="path100"
       style="fill:#ffffff;fill-opacity:1;fill-rule:nonzero;stroke:none"
       d="m 1128.3408,315.6843 c 4.6913,0 8.625,1.49 11.7563,4.47125 3.1125,2.94875 4.695,6.71625 4.695,11.2075 -0.041,4.47375 -1.58,8.21 -4.74,11.15375 -3.1613,2.91625 -7.1425,4.41625 -11.9513,4.41625 -4.6075,0 -8.4125,-1.47125 -11.4712,-4.41625 -3.0863,-2.97125 -4.5863,-6.6325 -4.5863,-11.06625 0,-4.555 1.54,-8.315 4.6188,-11.295 3.04,-3.0125 6.9712,-4.47125 11.6775,-4.47125 l 0,0 z m 0.1638,4.125 c -3.515,0 -6.3513,1.09125 -8.5963,3.275 -2.2825,2.175 -3.365,4.97125 -3.365,8.36125 0,3.28625 1.125,6.0275 3.3775,8.21125 2.25,2.15 5.0688,3.275 8.4538,3.275 3.3712,0 6.235,-1.11375 8.5075,-3.34 2.2437,-2.23875 3.41,-5.00125 3.41,-8.32 -0.041,-3.26 -1.1363,-5.94875 -3.41,-8.15375 -2.3025,-2.225 -5.0663,-3.30875 -8.3775,-3.30875"
       inkscape:connector-curvature="0" />
    <path
       id="path102"
       style="fill:#ffffff;fill-opacity:1;fill-rule:nonzero;stroke:none"
       d="m 1170.2971,316.0593 5.4937,0 -13.1975,14.47125 16.4475,16.0275 -6.0725,0 -15.4262,-15.035 0,15.035 -4.375,0 0,-30.4975 4.375,0 0,13.98375 12.7537,-13.985"
       inkscape:connector-curvature="0" />
    <path
       id="path104"
       style="fill:#ffffff;fill-opacity:1;fill-rule:nonzero;stroke:none"
       d="m 1181.0433,335.9318 10.875,0 0,-4.25 -10.875,0 0,4.25 z"
       inkscape:connector-curvature="0" />
    <path
       id="path106"
       style="fill:#ffffff;fill-opacity:1;fill-rule:nonzero;stroke:none"
       d="m 1206.8308,315.9343 2.985,0 13.7263,30.6225 -4.4588,0 -4.045,-9 -12.9725,0 -3.7925,9 -4.4787,0 13.0375,-30.6225 0,0 z m 6.4688,17.7475 -4.9438,-11.05875 -4.66,11.05875 9.6038,0"
       inkscape:connector-curvature="0" />
    <path
       id="path108"
       style="fill:#ffffff;fill-opacity:1;fill-rule:nonzero;stroke:none"
       d="m 1251.2908,316.0593 4.375,0 0,30.4975 -4.375,0 0,-13.375 -16.9975,0 0,13.375 -4.375,0 0,-30.4975 4.375,0 0,13.125 16.9975,0 0,-13.125"
       inkscape:connector-curvature="0" />
    <path
       id="path110"
       style="fill:#ffffff;fill-opacity:1;fill-rule:nonzero;stroke:none"
       d="m 1265.5433,316.0593 17.2475,0 0,3.875 -12.8725,0 0,9.375 12.3725,0 0,3.8725 -12.3725,0 0,9.5 13.2475,0 0,3.875 -17.6225,0 0,-30.4975"
       inkscape:connector-curvature="0" />
    <path
       id="path112"
       style="fill:#ffffff;fill-opacity:1;fill-rule:nonzero;stroke:none"
       d="m 1300.4558,315.9343 2.985,0 13.7263,30.6225 -4.4588,0 -4.045,-9 -12.9725,0 -3.7925,9 -4.4787,0 13.0375,-30.6225 0,0 z m 6.4688,17.7475 -4.9438,-11.05875 -4.66,11.05875 9.6038,0"
       inkscape:connector-curvature="0" />
    <path
       id="path114"
       style="fill:#ffffff;fill-opacity:1;fill-rule:nonzero;stroke:none"
       d="m 1323.6683,346.5568 0,-30.4975 10.2713,0 c 4.135,0 7.4187,0.6225 9.8325,1.86875 2.38,1.20625 4.3325,3.08 5.7575,5.5 1.3875,2.37875 2.1362,5.05625 2.1362,7.9125 -0.041,2.02875 -0.3925,3.99375 -1.1775,5.85875 -0.8087,1.86 -1.9037,3.50625 -3.3575,4.92 -1.5125,1.43625 -3.2062,2.5575 -5.1675,3.30125 -1.165,0.41375 -2.205,0.755 -3.1637,0.90875 -0.96,0.145 -2.7888,0.22875 -5.4925,0.22875 l -9.6388,0 0,-10e-4 z m 9.8263,-26.6225 -5.4513,0 0,22.7475 5.5825,0 c 2.1525,0 3.8725,-0.15 5.08,-0.44875 1.1938,-0.31625 2.2138,-0.67875 3.02,-1.13875 0.7875,-0.47125 1.545,-1.025 2.215,-1.6975 2.1438,-2.21875 3.2263,-4.955 3.2263,-8.29875 -0.041,-3.29625 -1.105,-5.96 -3.315,-8.03375 -0.8338,-0.77625 -1.7475,-1.40875 -2.8025,-1.90375 -1.0563,-0.53 -2.0525,-0.82375 -2.9975,-0.985 -0.9488,-0.20125 -2.4638,-0.2425 -4.5563,-0.2425"
       inkscape:connector-curvature="0" />
    <path
       id="path116"
       style="fill:#ffffff;fill-opacity:1;fill-rule:nonzero;stroke:none"
       d="m 914.43194,383.4918 -3.29488,-1.99625 c -2.09625,-1.2775 -3.53512,-2.49875 -4.40875,-3.72625 -0.894,-1.25875 -1.31,-2.64375 -1.31,-4.24375 0,-2.43 0.82613,-4.34625 2.4785,-5.84375 1.61913,-1.49875 3.80125,-2.2475 6.44537,-2.2475 2.50976,0 4.84225,0.71875 6.94863,2.15625 l 0,5 c -2.21625,-2.19875 -4.519,-3.28125 -7.02725,-3.28125 -1.44638,0 -2.57675,0.33 -3.48388,0.99 -0.94537,0.62125 -1.36137,1.505 -1.36137,2.535 0,0.905 0.33738,1.77 1.01125,2.56875 0.67238,0.765 1.75725,1.63625 3.24613,2.515 l 3.31875,1.9825 c 3.67237,2.19875 5.54737,5.0675 5.54737,8.51 -0.041,2.41625 -0.81487,4.4425 -2.44475,5.975 -1.646,1.505 -3.74762,2.29625 -6.3575,2.29625 -3.02388,0 -5.73237,-0.92625 -8.19475,-2.78125 l 0,-5.5 c 2.34075,2.90625 5.05125,4.40625 8.12838,4.40625 1.3565,0 2.48875,-0.38375 3.39162,-1.15 0.8975,-0.80125 1.355,-1.73 1.355,-2.885 0,-1.90125 -1.32913,-3.63125 -3.98637,-5.27875"
       inkscape:connector-curvature="0" />
    <path
       id="path118"
       style="fill:#ffffff;fill-opacity:1;fill-rule:nonzero;stroke:none"
       d="m 956.41581,389.3068 0,4.75 c -3.2325,1.75 -6.87625,2.625 -11.055,2.625 -3.41625,0 -6.27262,-0.68375 -8.63638,-2.0525 -2.38375,-1.3925 -4.23624,-3.25375 -5.61474,-5.65625 -1.40038,-2.41625 -2.06638,-5.00125 -2.06638,-7.7975 0,-4.47875 1.57525,-8.1725 4.72513,-11.19875 3.11612,-3.04375 7.03362,-4.5425 11.65237,-4.5425 3.18375,0 6.725,0.83375 10.62125,2.5 l 0,4.625 c -3.5875,-2 -7.015,-3 -10.4025,-3 -3.50625,0 -6.359,1.105 -8.65388,3.315 -2.31587,2.1875 -3.44087,4.97625 -3.44087,8.30125 0,3.315 1.13088,6.11125 3.395,8.27 2.25725,2.155 5.1585,3.23875 8.6835,3.23875 3.65875,0 7.28375,-1.125 10.795,-3.375"
       inkscape:connector-curvature="0" />
    <path
       id="path120"
       style="fill:#ffffff;fill-opacity:1;fill-rule:nonzero;stroke:none"
       d="m 986.41581,365.8093 4.375,0 0,30.4975 -4.375,0 0,-13.375 -16.9975,0 0,13.375 -4.375,0 0,-30.4975 4.375,0 0,13.125 16.9975,0 0,-13.125"
       inkscape:connector-curvature="0" />
    <path
       id="path122"
       style="fill:#ffffff;fill-opacity:1;fill-rule:nonzero;stroke:none"
       d="m 1000.5433,365.8093 17.2475,0 0,3.875 -12.8725,0 0,9.375 12.3725,0 0,3.8725 -12.3725,0 0,9.5 13.2475,0 0,3.875 -17.6225,0 0,-30.4975"
       inkscape:connector-curvature="0" />
    <path
       id="path124"
       style="fill:#ffffff;fill-opacity:1;fill-rule:nonzero;stroke:none"
       d="m 1025.9183,396.3068 0,-30.4975 10.2713,0 c 4.135,0 7.4187,0.6225 9.8325,1.86875 2.38,1.20625 4.3325,3.08 5.7575,5.5 1.3875,2.37875 2.1362,5.05625 2.1362,7.9125 -0.041,2.02875 -0.3925,3.99375 -1.1775,5.85875 -0.8087,1.86 -1.9037,3.50625 -3.3575,4.92 -1.5125,1.43625 -3.2062,2.5575 -5.1675,3.30125 -1.165,0.41375 -2.205,0.755 -3.1637,0.90875 -0.96,0.145 -2.7888,0.22875 -5.4925,0.22875 l -9.6388,0 0,-10e-4 z m 9.8263,-26.6225 -5.4513,0 0,22.7475 5.5825,0 c 2.1525,0 3.8725,-0.15 5.08,-0.44875 1.1938,-0.31625 2.2138,-0.67875 3.02,-1.13875 0.7875,-0.47125 1.545,-1.025 2.215,-1.6975 2.1438,-2.21875 3.2263,-4.955 3.2263,-8.29875 -0.041,-3.29625 -1.105,-5.96 -3.315,-8.03375 -0.8338,-0.77625 -1.7475,-1.40875 -2.8025,-1.90375 -1.0563,-0.53 -2.0525,-0.82375 -2.9975,-0.985 -0.9488,-0.20125 -2.4638,-0.2425 -4.5563,-0.2425"
       inkscape:connector-curvature="0" />
    <path
       id="path126"
       style="fill:#ffffff;fill-opacity:1;fill-rule:nonzero;stroke:none"
       d="m 1083.6658,365.8093 4.375,0 0,17.32625 c -0.041,2.31875 -0.1712,4.115 -0.5137,5.31 -0.3788,1.19 -0.765,2.18875 -1.2675,2.9825 -0.5325,0.7525 -1.1163,1.5025 -1.8438,2.12875 -2.4575,2.08375 -5.5762,3.125 -9.4762,3.125 -3.9813,0 -7.1625,-1.03375 -9.565,-3.10375 -0.755,-0.6475 -1.3438,-1.3575 -1.8463,-2.15 -0.54,-0.835 -0.9175,-1.76625 -1.2462,-2.9175 -0.365,-1.17625 -0.49,-2.9575 -0.49,-5.42 l 0,-17.28125 4.375,0 0,17.30625 c 0,2.8475 0.3287,4.86125 0.985,5.9825 0.62,1.10625 1.655,2.01875 2.9962,2.695 1.3075,0.63875 2.925,1.01375 4.7475,1.01375 2.5588,0 4.7075,-0.67625 6.3413,-2.02875 0.8375,-0.76 1.48,-1.58625 1.86,-2.57625 0.36,-0.99625 0.5687,-2.685 0.5687,-5.08625 l 0,-17.30625"
       inkscape:connector-curvature="0" />
    <path
       id="path128"
       style="fill:#ffffff;fill-opacity:1;fill-rule:nonzero;stroke:none"
       d="m 1097.0433,365.8093 4.375,0 0,26.4975 13.7475,0 0,4 -18.1225,0 0,-30.4975"
       inkscape:connector-curvature="0" />
    <path
       id="path130"
       style="fill:#ffffff;fill-opacity:1;fill-rule:nonzero;stroke:none"
       d="m 1121.9183,396.3068 4.375,0 0,-30.498 -4.375,0 0,30.498 z"
       inkscape:connector-curvature="0" />
    <path
       id="path132"
       style="fill:#ffffff;fill-opacity:1;fill-rule:nonzero;stroke:none"
       d="m 1160.4158,365.8093 4.125,0 0,30.4975 -3.7337,0 -20.3888,-23.46625 0,23.46625 -4.125,0 0,-30.4975 3.5588,0 20.565,23.6675 0,-23.6675"
       inkscape:connector-curvature="0" />
    <path
       id="path134"
       style="fill:#ffffff;fill-opacity:1;fill-rule:nonzero;stroke:none"
       d="m 1190.4158,381.3068 10.25,0 0,12.96125 c -3.7875,1.58125 -7.4637,2.41375 -11.1525,2.41375 -5.07,0 -9.0637,-1.47375 -12.0762,-4.4225 -3.02,-2.97375 -4.52,-6.58375 -4.52,-10.90875 0,-4.57125 1.56,-8.3475 4.68,-11.375 3.1025,-3.04375 7.0312,-4.5425 11.7325,-4.5425 1.7,0 3.3375,0.17875 4.875,0.5375 1.5262,0.34375 3.485,1.01125 5.8362,1.9625 l 0,4.5 c -3.67,-2.08375 -7.23,-3.125 -10.8012,-3.125 -3.3475,0 -6.125,1.13875 -8.4038,3.41625 -2.2925,2.26375 -3.4175,5.07125 -3.4175,8.3825 0,3.4575 1.1388,6.31375 3.4175,8.5175 2.2638,2.18125 5.21,3.30625 8.7925,3.30625 1.7138,0 3.825,-0.39875 6.2475,-1.1975 l 0.4138,-0.13125 0,-6.4225 -5.875,0 0,-3.875"
       inkscape:connector-curvature="0" />
  </g>
  <path
     sodipodi:nodetypes="cccccccccccccccccccccccccccccccccccccccccccccccccccccccccccccccccccccccccccccccccccccccccccccccccccccccccccccccccccccccccccccccccccccccccccccccccccccccccccccccccccccccccccc"
     inkscape:connector-curvature="0"
     id="rect4897"
     d="m -17.716535,694.47564 0,60.75581 68.086786,0 0,-60.75581 z m 74.125733,0 0,66.78764 -74.125733,0 0,121.54285 68.086786,0 0,-63.78734 70.965449,0 0,-124.54314 z m 70.965452,0 0,188.33049 64.89522,0 0,-127.57469 70.96545,0 0,-60.7558 z m 141.89962,0 0,124.54314 135.89196,0 0,-124.54314 z m 141.89962,0 0,60.75581 70.96546,0 0,63.78733 64.9265,0 0,-63.78733 70.96546,0 0,-60.75581 z m 212.89637,0 0,66.78764 -70.96546,0 0,57.7555 70.96546,0 0,63.78735 64.89521,0 0,-188.33049 z m 70.93416,0 0,124.54314 64.92651,0 0,-63.78733 141.93091,0 0,-60.75581 z m 212.86508,0 0,124.54314 135.892,0 0,-124.54314 z m 141.931,0 0,188.33049 64.9265,0 0,-63.78735 70.9654,0 0,-57.7555 -70.9654,0 0,-66.78764 z m 70.9655,0 0,60.75581 277.7914,0 0,-60.75581 z m 283.7991,0 0,60.75581 141.9309,0 0,63.78733 65.7088,0 0,-124.54314 z m -1206.25629,66.78764 0,121.54285 206.85742,0 0,-57.75551 -141.93091,0 0,-63.78734 z m 212.86508,0 0,188.33048 135.89196,0 0,-60.75581 -70.96545,0 0,-127.57467 z m 354.79599,0 0,57.7555 70.96545,0 0,63.78735 135.86068,0 0,-57.75551 -70.93417,0 0,-63.78734 z m 425.73022,0 0,63.78734 -70.9341,0 0,57.75551 135.8605,0 0,-63.78735 70.9655,0 0,-57.7555 z m 141.9309,0 0,57.7555 70.9341,0 0,63.78735 64.9266,0 0,-63.78735 70.9654,0 0,-57.7555 z m -1277.221802,63.78734 0,63.78733 -74.125733,0 0,60.75581 209.986405,0 0,-60.75581 -70.93417,0 0,-63.78733 z m 425.730152,0 0,57.75551 70.96545,0 0,66.78763 135.86067,0 0,-60.75581 -70.93416,0 0,-63.78733 z m 212.86507,0 0,124.54314 135.89196,0 0,-124.54314 z m 283.83053,0 0,63.78733 -141.89962,0 0,60.75581 206.82617,0 0,-124.54314 z m 283.83055,0 0,57.75551 70.9655,0 0,66.78763 135.8607,0 0,-60.75581 -70.9343,0 0,-63.78733 z m 212.865,0 0,124.54314 136.6743,0 0,-124.54314 z m -1277.22169,63.78733 0,60.75581 206.85742,0 0,-60.75581 z m 851.49169,0 0,60.75581 277.7915,0 0,-60.75581 z"
     style="fill:#dee0e0;fill-opacity:1" />
  <rect
     style="fill:none;stroke:none"
     id="rect3061"
     width="744.09448"
     height="1052.3622"
     x="814.96063"
     y="40.748047" />
  <rect
     y="40.748047"
     x="35.433071"
     height="1052.3622"
     width="744.09448"
     id="rect3831"
     style="fill:none;stroke:none" />
</svg>
