<?xml version="1.0" standalone="yes"?>
<svg version="1.1" xmlns="http://www.w3.org/2000/svg" xmlns:xlink="http://www.w3.org/1999/xlink" xmlns:ev="http://www.w3.org/2001/xml-events" width="350" height="350">
<path style="fill:#000000; stroke:none;" d="M10 10L10 80L80 80L80 10L10 10M90 10L90 20L100 20L100 40L90 40L90 90L70 90L70 100L80 100L80 110L50 110L50 120L40 120L40 110L30 110L30 100L20 100L20 90L10 90L10 110L30 110L30 120L20 120L20 130L30 130L30 140L20 140L20 150L30 150L30 140L50 140L50 150L40 150L40 160L10 160L10 180L20 180L20 190L10 190L10 210L20 210L20 220L10 220L10 230L20 230L20 220L50 220L50 230L30 230L30 250L10 250L10 260L40 260L40 240L50 240L50 230L60 230L60 240L80 240L80 250L70 250L70 260L80 260L80 250L100 250L100 260L90 260L90 280L110 280L110 300L130 300L130 310L140 310L140 320L110 320L110 310L100 310L100 330L90 330L90 340L100 340L100 330L110 330L110 340L120 340L120 330L140 330L140 340L150 340L150 310L160 310L160 330L180 330L180 340L230 340L230 310L220 310L220 300L180 300L180 290L150 290L150 280L180 280L180 270L190 270L190 280L200 280L200 260L190 260L190 250L210 250L210 260L220 260L220 270L210 270L210 290L220 290L220 270L240 270L240 250L250 250L250 280L230 280L230 300L240 300L240 340L280 340L280 320L300 320L300 310L310 310L310 320L320 320L320 310L330 310L330 300L310 300L310 290L300 290L300 280L310 280L310 270L320 270L320 290L330 290L330 270L320 270L320 260L310 260L310 270L300 270L300 250L290 250L290 240L300 240L300 230L310 230L310 240L320 240L320 250L330 250L330 220L340 220L340 200L330 200L330 170L320 170L320 180L300 180L300 170L310 170L310 160L300 160L300 150L250 150L250 140L260 140L260 130L270 130L270 140L280 140L280 110L270 110L270 100L300 100L300 120L310 120L310 110L320 110L320 130L340 130L340 120L330 120L330 100L340 100L340 90L330 90L330 100L310 100L310 90L250 90L250 80L260 80L260 70L250 70L250 80L240 80L240 60L250 60L250 50L260 50L260 20L250 20L250 10L240 10L240 20L250 20L250 50L240 50L240 40L230 40L230 20L220 20L220 30L210 30L210 20L190 20L190 30L180 30L180 10L160 10L160 20L150 20L150 10L140 10L140 20L130 20L130 10L110 10L110 20L100 20L100 10L90 10M270 10L270 80L340 80L340 10L270 10M70 20L70 70L20 70L20 20L70 20M120 20L120 40L110 40L110 20L120 20M170 20L170 30L180 30L180 40L170 40L170 60L180 60L180 50L190 50L190 40L200 40L200 30L210 30L210 40L220 40L220 50L240 50L240 60L210 60L210 80L200 80L200 60L180 60L180 70L190 70L190 80L180 80L180 110L190 110L190 120L200 120L200 100L190 100L190 90L210 90L210 100L220 100L220 110L230 110L230 90L240 90L240 120L230 120L230 140L240 140L240 160L260 160L260 170L270 170L270 180L280 180L280 160L290 160L290 180L300 180L300 200L310 200L310 190L320 190L320 200L330 200L330 210L320 210L320 230L310 230L310 210L290 210L290 190L280 190L280 210L270 210L270 220L280 220L280 230L290 230L290 220L300 220L300 230L290 230L290 240L280 240L280 230L270 230L270 220L260 220L260 230L250 230L250 210L240 210L240 220L230 220L230 230L240 230L240 240L230 240L230 230L220 230L220 240L210 240L210 220L220 220L220 210L230 210L230 200L250 200L250 180L240 180L240 160L220 160L220 180L230 180L230 190L220 190L220 200L210 200L210 210L200 210L200 200L190 200L190 190L180 190L180 180L160 180L160 190L150 190L150 180L130 180L130 170L120 170L120 190L110 190L110 230L120 230L120 220L130 220L130 210L120 210L120 200L130 200L130 210L140 210L140 200L160 200L160 210L170 210L170 200L180 200L180 210L190 210L190 220L200 220L200 230L180 230L180 220L170 220L170 240L180 240L180 260L170 260L170 250L160 250L160 220L150 220L150 240L140 240L140 250L130 250L130 260L120 260L120 270L110 270L110 260L120 260L120 250L100 250L100 240L110 240L110 230L100 230L100 220L90 220L90 240L80 240L80 230L70 230L70 220L90 220L90 210L100 210L100 190L90 190L90 180L80 180L80 190L70 190L70 200L80 200L80 210L70 210L70 200L60 200L60 190L70 190L70 180L60 180L60 170L50 170L50 200L20 200L20 190L40 190L40 170L50 170L50 160L60 160L60 150L70 150L70 140L50 140L50 120L80 120L80 110L90 110L90 100L100 100L100 110L110 110L110 120L80 120L80 130L70 130L70 140L90 140L90 130L110 130L110 140L120 140L120 130L130 130L130 140L140 140L140 150L160 150L160 140L150 140L150 120L160 120L160 130L170 130L170 90L160 90L160 100L150 100L150 110L120 110L120 100L130 100L130 90L140 90L140 70L130 70L130 80L120 80L120 90L100 90L100 70L110 70L110 60L100 60L100 50L130 50L130 40L140 40L140 30L150 30L150 40L160 40L160 20L170 20M330 20L330 70L280 70L280 20L330 20M30 30L30 60L60 60L60 30L30 30M290 30L290 60L320 60L320 30L290 30M130 50L130 60L120 60L120 70L110 70L110 80L120 80L120 70L130 70L130 60L140 60L140 50L130 50M200 50L200 60L210 60L210 50L200 50M160 60L160 70L150 70L150 80L160 80L160 70L170 70L170 80L180 80L180 70L170 70L170 60L160 60M230 70L230 80L220 80L220 70L230 70M50 90L50 100L60 100L60 90L50 90M260 100L260 110L250 110L250 100L260 100M40 120L40 130L30 130L30 120L40 120M200 120L200 140L190 140L190 150L180 150L180 160L170 160L170 150L160 150L160 160L150 160L150 170L180 170L180 180L190 180L190 190L200 190L200 180L210 180L210 170L200 170L200 180L190 180L190 160L200 160L200 150L210 150L210 160L220 160L220 150L230 150L230 140L210 140L210 120L200 120M260 120L260 130L250 130L250 120L260 120M170 130L170 140L180 140L180 130L170 130M290 130L290 140L310 140L310 130L290 130M90 140L90 160L80 160L80 150L70 150L70 160L60 160L60 170L70 170L70 180L80 180L80 170L90 170L90 180L100 180L100 190L110 190L110 170L120 170L120 160L100 160L100 140L90 140M320 150L320 160L330 160L330 150L320 150M80 160L80 170L70 170L70 160L80 160M100 160L100 170L90 170L90 160L100 160M250 170L250 180L260 180L260 200L250 200L250 210L260 210L260 200L270 200L270 180L260 180L260 170L250 170M60 210L60 220L50 220L50 210L60 210M130 220L130 230L120 230L120 240L130 240L130 230L140 230L140 220L130 220M50 250L50 260L60 260L60 250L50 250M160 260L160 270L150 270L150 260L160 260M290 260L290 290L260 290L260 260L290 260M10 270L10 340L80 340L80 270L10 270M270 270L270 280L280 280L280 270L270 270M70 280L70 330L20 330L20 280L70 280M140 280L140 290L150 290L150 310L140 310L140 290L130 290L130 280L140 280M30 290L30 320L60 320L60 290L30 290M90 290L90 300L100 300L100 290L90 290M250 290L250 300L270 300L270 310L260 310L260 320L270 320L270 330L260 330L260 320L250 320L250 300L240 300L240 290L250 290M180 300L180 310L190 310L190 320L200 320L200 310L210 310L210 320L220 320L220 330L190 330L190 320L170 320L170 310L160 310L160 300L180 300M330 330L330 340L340 340L340 330L330 330z"/>
</svg>
