<?xml version="1.0" encoding="UTF-8" standalone="no"?>
<!-- Created with Inkscape (http://www.inkscape.org/) -->

<svg
   xmlns:dc="http://purl.org/dc/elements/1.1/"
   xmlns:cc="http://creativecommons.org/ns#"
   xmlns:rdf="http://www.w3.org/1999/02/22-rdf-syntax-ns#"
   xmlns:svg="http://www.w3.org/2000/svg"
   xmlns="http://www.w3.org/2000/svg"
   xmlns:sodipodi="http://sodipodi.sourceforge.net/DTD/sodipodi-0.dtd"
   xmlns:inkscape="http://www.inkscape.org/namespaces/inkscape"
   width="145.27559"
   height="194.88188"
   id="svg2"
   version="1.1"
   inkscape:version="0.48.2 r9819"
   sodipodi:docname="LLSP_System.svg">
  <defs
     id="defs4">
    <marker
       inkscape:stockid="Arrow2Mend"
       orient="auto"
       refY="0"
       refX="0"
       id="Arrow2Mend"
       style="overflow:visible">
      <path
         id="path4133"
         style="font-size:12px;fill-rule:evenodd;stroke-width:0.625;stroke-linejoin:round"
         d="M 8.7185878,4.0337352 -2.2072895,0.01601326 8.7185884,-4.0017078 c -1.7454984,2.3720609 -1.7354408,5.6174519 -6e-7,8.035443 z"
         transform="scale(-0.6,-0.6)"
         inkscape:connector-curvature="0" />
    </marker>
  </defs>
  <sodipodi:namedview
     id="base"
     pagecolor="#ffffff"
     bordercolor="#666666"
     borderopacity="1.0"
     inkscape:pageopacity="0.0"
     inkscape:pageshadow="2"
     inkscape:zoom="3.5560001"
     inkscape:cx="76.181099"
     inkscape:cy="97.440941"
     inkscape:document-units="px"
     inkscape:current-layer="layer1"
     showgrid="true"
     units="cm"
     inkscape:window-width="1192"
     inkscape:window-height="892"
     inkscape:window-x="71"
     inkscape:window-y="0"
     inkscape:window-maximized="0"
     showguides="true"
     inkscape:guide-bbox="true">
    <inkscape:grid
       type="xygrid"
       id="grid2985"
       empspacing="5"
       visible="true"
       enabled="true"
       snapvisiblegridlinesonly="true"
       units="mm"
       spacingx="1mm"
       spacingy="1mm" />
  </sodipodi:namedview>
  <metadata
     id="metadata7">
    <rdf:RDF>
      <cc:Work
         rdf:about="">
        <dc:format>image/svg+xml</dc:format>
        <dc:type
           rdf:resource="http://purl.org/dc/dcmitype/StillImage" />
        <dc:title />
      </cc:Work>
    </rdf:RDF>
  </metadata>
  <g
     inkscape:label="Ebene 1"
     inkscape:groupmode="layer"
     id="layer1"
     transform="translate(0,-857.48031)">
    <g
       id="g4589"
       transform="translate(-3.5433071,-6.2822573e-6)">
      <text
         sodipodi:linespacing="125%"
         id="text4085"
         y="868.11023"
         x="67.322845"
         style="font-size:40px;font-style:normal;font-weight:normal;line-height:125%;letter-spacing:0px;word-spacing:0px;fill:#000000;fill-opacity:1;stroke:none;font-family:Sans"
         xml:space="preserve"><tspan
           style="font-size:12px;font-style:normal;font-variant:normal;font-weight:300;font-stretch:normal;text-align:center;text-anchor:middle;font-family:Gill Sans;-inkscape-font-specification:Gill Sans Light"
           y="868.11023"
           x="67.322845"
           id="tspan4087"
           sodipodi:role="line">one column per metric</tspan></text>
      <path
         sodipodi:nodetypes="ccccccc"
         inkscape:connector-curvature="0"
         id="path4033"
         d="m 4.0430001,885.82679 c 0,-3.54331 3.5433067,-7.08661 7.0866139,-7.08661 17.716536,0 31.390071,0 49.106607,0 3.543306,0 7.086614,-3.54331 7.086614,-7.08662 0,3.54331 3.543307,7.08662 7.086614,7.08662 15.35433,0 26.865221,0 42.219551,0 3.54331,0 7.08662,3.5433 7.08662,7.08661"
         style="fill:none;stroke:#000000;stroke-width:0.75;stroke-linecap:round;stroke-linejoin:round;stroke-miterlimit:4;stroke-opacity:1;stroke-dasharray:none" />
    </g>
    <rect
       style="fill:#808785;fill-opacity:1;stroke:none"
       id="rect4035"
       width="120.47244"
       height="120.47244"
       x="9.7411257e-06"
       y="889.37012" />
    <rect
       y="889.37012"
       x="124.01575"
       height="120.47244"
       width="21.259851"
       id="rect4041"
       style="fill:#808785;fill-opacity:1;stroke:none" />
    <g
       id="g4551"
       style="fill:#48494b"
       transform="translate(-3.5433071,-6.2822573e-6)">
      <rect
         y="889.37012"
         x="3.5433173"
         height="21.259842"
         width="21.259842"
         id="rect3006"
         style="fill:#48494b;fill-rule:evenodd;stroke:none" />
      <rect
         style="fill:#48494b;fill-rule:evenodd;stroke:none"
         id="rect3776"
         width="21.259842"
         height="21.259842"
         x="28.346466"
         y="889.37012" />
      <rect
         y="889.37012"
         x="53.14962"
         height="21.259842"
         width="21.259842"
         id="rect3778"
         style="fill:#48494b;fill-rule:evenodd;stroke:none" />
      <rect
         style="fill:#48494b;fill-rule:evenodd;stroke:none"
         id="rect3780"
         width="21.259842"
         height="21.259842"
         x="77.952766"
         y="889.37012" />
      <rect
         y="889.37012"
         x="102.75592"
         height="21.259842"
         width="21.259842"
         id="rect3782"
         style="fill:#48494b;fill-rule:evenodd;stroke:none" />
      <rect
         style="fill:#48494b;fill-rule:evenodd;stroke:none"
         id="rect3784"
         width="21.259842"
         height="21.259842"
         x="127.55907"
         y="889.37012" />
      <path
         sodipodi:nodetypes="cccccccccc"
         inkscape:connector-curvature="0"
         id="rect3786"
         d="m 3.5455318,914.18482 0,21.25 21.2500002,0 0,-21.25 z m 1.53125,1.53125 18.1875002,0 0,18.1875 -18.1875002,0 z"
         style="fill:#48494b;fill-rule:evenodd;stroke:none" />
      <rect
         y="914.17328"
         x="28.346466"
         height="21.259842"
         width="21.259842"
         id="rect3788"
         style="fill:#48494b;fill-rule:evenodd;stroke:none" />
      <rect
         style="fill:#48494b;fill-rule:evenodd;stroke:none"
         id="rect3790"
         width="21.259842"
         height="21.259842"
         x="53.14962"
         y="914.17328" />
      <rect
         y="914.17328"
         x="77.952766"
         height="21.259842"
         width="21.259842"
         id="rect3792"
         style="fill:#48494b;fill-rule:evenodd;stroke:none" />
      <rect
         style="fill:#48494b;fill-rule:evenodd;stroke:none"
         id="rect3794"
         width="21.259842"
         height="21.259842"
         x="102.75592"
         y="914.17328" />
      <rect
         y="914.17328"
         x="127.55907"
         height="21.259842"
         width="21.259842"
         id="rect3796"
         style="fill:#48494b;fill-rule:evenodd;stroke:none" />
      <rect
         y="938.97644"
         x="53.14962"
         height="21.259842"
         width="21.259842"
         id="rect3802"
         style="fill:#48494b;fill-rule:evenodd;stroke:none" />
      <rect
         style="fill:#48494b;fill-rule:evenodd;stroke:none"
         id="rect3804"
         width="21.259842"
         height="21.259842"
         x="77.952766"
         y="938.97644" />
      <rect
         y="938.97644"
         x="102.75592"
         height="21.259842"
         width="21.259842"
         id="rect3806"
         style="fill:#48494b;fill-rule:evenodd;stroke:none" />
      <rect
         style="fill:#48494b;fill-rule:evenodd;stroke:none"
         id="rect3808"
         width="21.259842"
         height="21.259842"
         x="127.55907"
         y="938.97644" />
      <rect
         y="963.77954"
         x="77.952766"
         height="21.259842"
         width="21.259842"
         id="rect3828"
         style="fill:#48494b;fill-rule:evenodd;stroke:none" />
      <rect
         style="fill:#48494b;fill-rule:evenodd;stroke:none"
         id="rect3830"
         width="21.259842"
         height="21.259842"
         x="102.75592"
         y="963.77954" />
      <rect
         y="963.77954"
         x="127.55907"
         height="21.259842"
         width="21.259842"
         id="rect3832"
         style="fill:#48494b;fill-rule:evenodd;stroke:none" />
      <rect
         y="988.5827"
         x="102.75592"
         height="21.259842"
         width="21.259842"
         id="rect3854"
         style="fill:#48494b;fill-rule:evenodd;stroke:none" />
      <rect
         style="fill:#48494b;fill-rule:evenodd;stroke:none"
         id="rect3856"
         width="21.259842"
         height="21.259842"
         x="127.55907"
         y="988.5827" />
      <rect
         y="1013.3858"
         x="127.55907"
         height="21.259842"
         width="21.259842"
         id="rect3880"
         style="fill:#48494b;fill-rule:evenodd;stroke:none" />
      <path
         style="fill:#48494b;fill-rule:evenodd;stroke:none"
         d="m 3.5433168,938.97639 0,21.25 21.2500002,0 0,-21.25 z m 1.53125,1.53125 18.1875002,0 0,18.1875 -18.1875002,0 z"
         id="path3925"
         inkscape:connector-curvature="0"
         sodipodi:nodetypes="cccccccccc" />
      <path
         sodipodi:nodetypes="cccccccccc"
         inkscape:connector-curvature="0"
         id="path3927"
         d="m 28.346467,938.97639 0,21.25 21.25,0 0,-21.25 z m 1.53125,1.53125 18.1875,0 0,18.1875 -18.1875,0 z"
         style="fill:#48494b;fill-rule:evenodd;stroke:none" />
      <path
         sodipodi:nodetypes="cccccccccc"
         inkscape:connector-curvature="0"
         id="path3933"
         d="m 3.5433168,963.77954 0,21.25 21.2500002,0 0,-21.25 z m 1.53125,1.53125 18.1875002,0 0,18.1875 -18.1875002,0 z"
         style="fill:#48494b;fill-rule:evenodd;stroke:none" />
      <path
         style="fill:#48494b;fill-rule:evenodd;stroke:none"
         d="m 28.346467,963.77954 0,21.25 21.25,0 0,-21.25 z m 1.53125,1.53125 18.1875,0 0,18.1875 -18.1875,0 z"
         id="path3935"
         inkscape:connector-curvature="0"
         sodipodi:nodetypes="cccccccccc" />
      <path
         sodipodi:nodetypes="cccccccccc"
         inkscape:connector-curvature="0"
         id="path3937"
         d="m 53.149617,963.77954 0,21.25 21.25,0 0,-21.25 z m 1.53125,1.53125 18.1875,0 0,18.1875 -18.1875,0 z"
         style="fill:#48494b;fill-rule:evenodd;stroke:none" />
      <path
         style="fill:#48494b;fill-rule:evenodd;stroke:none"
         d="m 3.5433168,988.58269 0,21.25001 21.2500002,0 0,-21.25001 z m 1.53125,1.53125 18.1875002,0 0,18.18746 -18.1875002,0 z"
         id="path3939"
         inkscape:connector-curvature="0"
         sodipodi:nodetypes="cccccccccc" />
      <path
         sodipodi:nodetypes="cccccccccc"
         inkscape:connector-curvature="0"
         id="path3941"
         d="m 28.346467,988.58269 0,21.25001 21.25,0 0,-21.25001 z m 1.53125,1.53125 18.1875,0 0,18.18746 -18.1875,0 z"
         style="fill:#48494b;fill-rule:evenodd;stroke:none" />
      <path
         style="fill:#48494b;fill-rule:evenodd;stroke:none"
         d="m 53.149617,988.58269 0,21.25001 21.25,0 0,-21.25001 z m 1.53125,1.53125 18.1875,0 0,18.18746 -18.1875,0 z"
         id="path3943"
         inkscape:connector-curvature="0"
         sodipodi:nodetypes="cccccccccc" />
      <path
         sodipodi:nodetypes="cccccccccc"
         inkscape:connector-curvature="0"
         id="path3945"
         d="m 77.952766,988.58269 0,21.25001 21.249997,0 0,-21.25001 z m 1.53125,1.5312 18.187497,0 0,18.18751 -18.187497,0 z"
         style="fill:#48494b;fill-rule:evenodd;stroke:none" />
      <path
         sodipodi:nodetypes="cccccccccc"
         inkscape:connector-curvature="0"
         id="path3947"
         d="m 3.5433168,1013.3858 0,21.2501 21.2500002,0 0,-21.2501 z m 1.53125,1.5313 18.1875002,0 0,18.1875 -18.1875002,0 z"
         style="fill:#48494b;fill-rule:evenodd;stroke:none" />
      <path
         style="fill:#48494b;fill-rule:evenodd;stroke:none"
         d="m 28.346467,1013.3858 0,21.2501 21.25,0 0,-21.2501 z m 1.53125,1.5313 18.1875,0 0,18.1875 -18.1875,0 z"
         id="path3949"
         inkscape:connector-curvature="0"
         sodipodi:nodetypes="cccccccccc" />
      <path
         sodipodi:nodetypes="cccccccccc"
         inkscape:connector-curvature="0"
         id="path3951"
         d="m 53.149617,1013.3858 0,21.2501 21.25,0 0,-21.2501 z m 1.53125,1.5313 18.1875,0 0,18.1875 -18.1875,0 z"
         style="fill:#48494b;fill-rule:evenodd;stroke:none" />
      <path
         style="fill:#48494b;fill-rule:evenodd;stroke:none"
         d="m 77.952766,1013.3858 0,21.2501 21.249997,0 0,-21.2501 z m 1.53125,1.5312 18.187497,0 0,18.1876 -18.187497,0 z"
         id="path3953"
         inkscape:connector-curvature="0"
         sodipodi:nodetypes="cccccccccc" />
      <path
         sodipodi:nodetypes="cccccccccc"
         inkscape:connector-curvature="0"
         id="path3955"
         d="m 102.75591,1013.3858 0,21.2501 21.25,0 0,-21.2501 z m 1.53125,1.5312 18.1875,0 0,18.1876 -18.1875,0 z"
         style="fill:#48494b;fill-rule:evenodd;stroke:none" />
    </g>
    <g
       id="g4052"
       transform="translate(-7.0866044,-1.5432837)">
      <path
         sodipodi:nodetypes="ccccccc"
         inkscape:connector-curvature="0"
         id="path4050"
         style="font-size:22px;font-style:normal;font-variant:normal;font-weight:normal;font-stretch:normal;line-height:125%;letter-spacing:0px;word-spacing:0px;fill:#ffffff;fill-opacity:1;stroke:none;font-family:Gill Sans;-inkscape-font-specification:Gill Sans"
         d="m 66.81629,941.18347 -2.839931,3.22972 1.583876,0 2.361134,-1.81976 1.974487,1.81976 1.594882,0 -2.206948,-3.22972" />
      <text
         sodipodi:linespacing="125%"
         id="text3961"
         y="960.59393"
         x="59.260822"
         style="font-size:40px;font-style:normal;font-weight:normal;line-height:125%;letter-spacing:0px;word-spacing:0px;fill:#ffffff;fill-opacity:1;stroke:none;font-family:Sans"
         xml:space="preserve"><tspan
           style="font-size:22px;font-style:italic;font-variant:normal;font-weight:bold;font-stretch:normal;fill:#ffffff;font-family:Gill Sans;-inkscape-font-specification:Gill Sans Bold Italic"
           y="960.59393"
           x="59.260822"
           id="tspan3963"
           sodipodi:role="line">R</tspan></text>
    </g>
    <g
       id="g4060"
       transform="translate(70.031392,-1.4424398)">
      <path
         d="m 65.316773,944.9045 -2.839931,3.22972 1.583876,0 2.361134,-1.81976 1.974487,1.81976 1.594882,0 -2.206948,-3.22972"
         style="font-size:22px;font-style:normal;font-variant:normal;font-weight:normal;font-stretch:normal;line-height:125%;letter-spacing:0px;word-spacing:0px;fill:#ffffff;fill-opacity:1;stroke:none;font-family:Gill Sans;-inkscape-font-specification:Gill Sans"
         id="path4616"
         inkscape:connector-curvature="0"
         sodipodi:nodetypes="ccccccc" />
      <text
         xml:space="preserve"
         style="font-size:40px;font-style:normal;font-weight:normal;line-height:125%;letter-spacing:0px;word-spacing:0px;fill:#ffffff;fill-opacity:1;stroke:none;font-family:Sans"
         x="59.260822"
         y="960.59393"
         id="text4064"
         sodipodi:linespacing="125%"><tspan
           sodipodi:role="line"
           id="tspan4066"
           x="59.260822"
           y="960.59393"
           style="font-size:22px;font-style:italic;font-variant:normal;font-weight:bold;font-stretch:normal;fill:#ffffff;font-family:Gill Sans;-inkscape-font-specification:Gill Sans Bold Italic">c</tspan></text>
      <path
         style="fill:none;stroke:#ffffff;stroke-width:1.5;stroke-linecap:butt;stroke-linejoin:miter;stroke-miterlimit:4;stroke-opacity:1;stroke-dasharray:none"
         d="m 60.054004,962.92135 9.29075,0"
         id="path4074"
         inkscape:connector-curvature="0"
         sodipodi:nodetypes="cc" />
    </g>
    <text
       xml:space="preserve"
       style="font-size:40px;font-style:normal;font-weight:normal;line-height:125%;letter-spacing:0px;word-spacing:0px;fill:#ffffff;fill-opacity:1;stroke:none;font-family:Sans"
       x="124.81419"
       y="1027.3801"
       id="text3984"
       sodipodi:linespacing="125%"><tspan
         sodipodi:role="line"
         id="tspan3986"
         x="124.81419"
         y="1027.3801"
         style="font-size:22px;font-style:italic;fill:#ffffff;-inkscape-font-specification:Sans Italic"><tspan
           style="font-style:italic;font-variant:normal;font-weight:bold;font-stretch:normal;fill:#ffffff;font-family:Gill Sans;-inkscape-font-specification:Gill Sans Bold Italic"
           id="tspan4039">c</tspan><tspan
           style="font-size:13px;font-style:italic;font-variant:normal;font-weight:bold;font-stretch:normal;baseline-shift:sub;fill:#ffffff;font-family:Gill Sans;-inkscape-font-specification:Gill Sans Bold Italic"
           id="tspan3988"
           dx="-1.15">R</tspan></tspan></text>
    <g
       id="g4611"
       transform="translate(-3.5433071,-6.2822573e-6)">
      <text
         sodipodi:linespacing="125%"
         id="text4547"
         y="1051.5624"
         x="124.01575"
         style="font-size:12px;font-style:normal;font-variant:normal;font-weight:normal;font-stretch:normal;text-align:end;line-height:125%;letter-spacing:0px;word-spacing:0px;text-anchor:end;fill:#000000;fill-opacity:1;stroke:none;font-family:Gill Sans;-inkscape-font-specification:Gill Sans"
         xml:space="preserve"><tspan
           style="font-style:normal;font-variant:normal;font-weight:300;font-stretch:normal;font-family:Gill Sans;-inkscape-font-specification:Gill Sans Light"
           y="1051.5624"
           x="124.01575"
           id="tspan4549"
           sodipodi:role="line">residual error</tspan></text>
      <path
         sodipodi:nodetypes="cc"
         inkscape:connector-curvature="0"
         id="path4101"
         d="m 127.55906,1048.8189 c 10.62992,0 10.62992,-3.5433 10.62992,-10.6299"
         style="fill:none;stroke:#000000;stroke-width:0.75;stroke-linecap:round;stroke-linejoin:miter;stroke-miterlimit:4;stroke-opacity:1;stroke-dasharray:none;marker-end:url(#Arrow2Mend)" />
    </g>
  </g>
</svg>
